<svg xmlns="http://www.w3.org/2000/svg" xmlns:xlink="http://www.w3.org/1999/xlink" preserveAspectRatio="xMaxYMax slice" viewBox="0 0 1300 700.009"><g transform="scale(1.550064089188303)"><rect width="838.686" height="451.6" x="0" y="0" fill="#fff"/><rect width="64.51" height="64.51" x="0" y="0" fill="#f9e9c2"/><path fill="#8fa0a9" d="M 0 64.51 A 64.51 64.51 0 0 1 64.51 0 L 0 64.51 A 64.51 64.51 0 0 0 64.51 0"/><rect width="64.514" height="64.514" x="64.514" y="0" fill="#fff"/><rect width="32.26" height="32.26" x="64.51" y="0" fill="#718792"/><path fill="#faedcc" d="M 64.51 0 A 32.26 32.26 0 0 1 96.77000000000001 32.26 L 64.51 32.26"/><rect width="32.26" height="32.26" x="96.77" y="0" fill="#faefd2"/><path fill="#f9ebc7" d="M 96.77 32.26 A 32.26 32.26 0 0 1 129.03 0 L 129.03 32.26"/><rect width="32.26" height="32.26" x="64.51" y="32.26" fill="#9aa9b2"/><path fill="#f4db9b" d="M 64.51 32.26 A 32.26 32.26 0 0 1 96.77000000000001 64.52 L 64.51 64.52"/><rect width="32.26" height="32.26" x="96.77" y="32.26" fill="#9cabb3"/><path fill="#f7e3b0" d="M 96.77 64.52 A 32.26 32.26 0 0 1 129.03 32.26 L 129.03 64.52"/><rect width="64.514" height="64.514" x="129.029" y="0" fill="#fff"/><rect width="32.26" height="32.26" x="129.03" y="0" fill="#43606f"/><path fill="#8496a1" d="M 129.03 0 A 32.26 32.26 0 0 0 161.29 32.26 L 161.29 0"/><rect width="32.26" height="32.26" x="161.29" y="0" fill="#f4db9b"/><path fill="#f2f4f5" d="M 161.29 32.26 A 32.26 32.26 0 0 0 193.54999999999998 0 L 161.29 0"/><rect width="32.26" height="32.26" x="129.03" y="32.26" fill="#bbc5cb"/><path fill="#91a1ab" d="M 129.03 64.52 A 32.26 32.26 0 0 1 161.29 32.26 L 129.03 64.52 A 32.26 32.26 0 0 0 161.29 32.26"/><rect width="32.26" height="32.26" x="161.29" y="32.26" fill="#fbf2db"/><path fill="#738894" d="M 161.29 64.52 A 32.26 32.26 0 0 1 193.54999999999998 32.26 L 161.29 64.52 A 32.26 32.26 0 0 0 193.54999999999998 32.26"/><rect width="64.51" height="64.51" x="193.54" y="0" fill="#315162"/><path fill="#f9ebc8" d="M 193.54 0 A 64.51 64.51 0 0 1 258.05 64.51 L 193.54 0 A 64.51 64.51 0 0 0 258.05 64.51"/><rect width="64.514" height="64.514" x="258.057" y="0" fill="#fff"/><rect width="32.26" height="32.26" x="258.06" y="0" fill="#f9eac3"/><path fill="#fefcf8" d="M 258.06 32.26 A 32.26 32.26 0 0 1 290.32 0 L 258.06 32.26 A 32.26 32.26 0 0 0 290.32 0"/><rect width="32.26" height="32.26" x="290.31" y="0" fill="#43606f"/><path fill="#fbf2db" d="M 290.31 32.26 A 32.26 32.26 0 0 0 322.57 0 L 290.31 0"/><rect width="32.26" height="32.26" x="258.06" y="32.26" fill="#f3d78f"/><path fill="#8fa0a9" d="M 258.06 64.52 A 32.26 32.26 0 0 1 290.32 32.26 L 290.32 64.52"/><rect width="32.26" height="32.26" x="290.31" y="32.26" fill="#f8e7bc"/><path fill="#f0cc72" d="M 290.31 64.52 A 32.26 32.26 0 0 1 322.57 32.26 L 322.57 64.52"/><rect width="64.514" height="64.514" x="322.571" y="0" fill="#fff"/><rect width="32.26" height="32.26" x="322.57" y="0" fill="#d9dfe2"/><path fill="#5f7784" d="M 322.57 32.26 A 32.26 32.26 0 0 0 354.83 0 L 322.57 0"/><rect width="32.26" height="32.26" x="354.83" y="0" fill="#f2d487"/><path fill="#f7e3b1" d="M 354.83 32.26 A 32.26 32.26 0 0 0 387.09 0 L 354.83 0"/><rect width="32.26" height="32.26" x="322.57" y="32.26" fill="#f5dc9f"/><path fill="#fefcf7" d="M 322.57 64.52 A 32.26 32.26 0 0 1 354.83 32.26 L 354.83 64.52"/><rect width="32.26" height="32.26" x="354.83" y="32.26" fill="#f7e3b1"/><path fill="#f4d995" d="M 354.83 32.26 A 32.26 32.26 0 0 1 387.09 64.52 L 354.83 32.26 A 32.26 32.26 0 0 0 387.09 64.52"/><rect width="64.51" height="64.51" x="387.09" y="0" fill="#718792"/><path fill="#fdf8ed" d="M 387.09 64.51 A 64.51 64.51 0 0 1 451.59999999999997 0 L 451.59999999999997 64.51"/><rect width="64.514" height="64.514" x="451.6" y="0" fill="#fff"/><rect width="32.26" height="32.26" x="451.6" y="0" fill="#3a5868"/><path fill="#f8e8bf" d="M 451.6 32.26 A 32.26 32.26 0 0 1 483.86 0 L 451.6 32.26 A 32.26 32.26 0 0 0 483.86 0"/><rect width="32.26" height="32.26" x="483.86" y="0" fill="#d6dce0"/><path fill="#dde2e5" d="M 483.86 32.26 A 32.26 32.26 0 0 1 516.12 0 L 483.86 32.26 A 32.26 32.26 0 0 0 516.12 0"/><rect width="32.26" height="32.26" x="451.6" y="32.26" fill="#d4dbde"/><path fill="#e2e6e9" d="M 451.6 64.52 A 32.26 32.26 0 0 1 483.86 32.26 L 451.6 64.52 A 32.26 32.26 0 0 0 483.86 32.26"/><rect width="32.26" height="32.26" x="483.86" y="32.26" fill="#56707e"/><path fill="#a1b0b7" d="M 483.86 64.52 A 32.26 32.26 0 0 1 516.12 32.26 L 483.86 64.52 A 32.26 32.26 0 0 0 516.12 32.26"/><rect width="64.51" height="64.51" x="516.11" y="0" fill="#6e8490"/><path fill="#f8e7bc" d="M 516.11 0 A 64.51 64.51 0 0 1 580.62 64.51 L 516.11 64.51"/><rect width="64.51" height="64.51" x="580.63" y="0" fill="#93a3ac"/><path fill="#fefdf8" d="M 580.63 64.51 A 64.51 64.51 0 0 1 645.14 0 L 580.63 64.51 A 64.51 64.51 0 0 0 645.14 0"/><rect width="64.514" height="64.514" x="645.143" y="0" fill="#fff"/><rect width="32.26" height="32.26" x="645.14" y="0" fill="#f8e8bf"/><path fill="#faedcd" d="M 645.14 32.26 A 32.26 32.26 0 0 1 677.4 0 L 677.4 32.26"/><rect width="32.26" height="32.26" x="677.4" y="0" fill="#f0cd75"/><path fill="#b1bdc3" d="M 677.4 0 A 32.26 32.26 0 0 1 709.66 32.26 L 677.4 32.26"/><rect width="32.26" height="32.26" x="645.14" y="32.26" fill="#9aaab2"/><path fill="#dadfe2" d="M 645.14 32.26 A 32.26 32.26 0 0 1 677.4 64.52 L 645.14 64.52"/><rect width="32.26" height="32.26" x="677.4" y="32.26" fill="#f6e0a8"/><path fill="#f1ce76" d="M 677.4 64.52 A 32.26 32.26 0 0 1 709.66 32.26 L 677.4 64.52 A 32.26 32.26 0 0 0 709.66 32.26"/><rect width="64.514" height="64.514" x="709.657" y="0" fill="#fff"/><rect width="32.26" height="32.26" x="709.66" y="0" fill="#f7e4b5"/><path fill="#2a4a5c" d="M 709.66 32.26 A 32.26 32.26 0 0 1 741.92 0 L 741.92 32.26"/><rect width="32.26" height="32.26" x="741.91" y="0" fill="#d7dde0"/><path fill="#fcf5e3" d="M 741.91 32.26 A 32.26 32.26 0 0 1 774.17 0 L 774.17 32.26"/><rect width="32.26" height="32.26" x="709.66" y="32.26" fill="#f6e1ac"/><path fill="#a4b2b9" d="M 709.66 64.52 A 32.26 32.26 0 0 1 741.92 32.26 L 741.92 64.52"/><rect width="32.26" height="32.26" x="741.91" y="32.26" fill="#3d5b6b"/><path fill="#fdf7e9" d="M 741.91 32.26 A 32.26 32.26 0 0 1 774.17 64.52 L 741.91 32.26 A 32.26 32.26 0 0 0 774.17 64.52"/><rect width="64.514" height="64.514" x="774.171" y="0" fill="#fff"/><rect width="32.26" height="32.26" x="774.17" y="0" fill="#2a4a5c"/><path fill="#f0ce75" d="M 774.17 0 A 32.26 32.26 0 0 0 806.43 32.26 L 806.43 0"/><rect width="32.26" height="32.26" x="806.43" y="0" fill="#fdf7e9"/><path fill="#f9eac5" d="M 806.43 0 A 32.26 32.26 0 0 0 838.6899999999999 32.26 L 838.6899999999999 0"/><rect width="32.26" height="32.26" x="774.17" y="32.26" fill="#f1d07d"/><path fill="#f8e8c0" d="M 774.17 64.52 A 32.26 32.26 0 0 1 806.43 32.26 L 774.17 64.52 A 32.26 32.26 0 0 0 806.43 32.26"/><rect width="32.26" height="32.26" x="806.43" y="32.26" fill="#708692"/><path fill="#f7e4b3" d="M 806.43 32.26 A 32.26 32.26 0 0 0 838.6899999999999 64.52 L 838.6899999999999 32.26"/><rect width="64.514" height="64.514" x="0" y="64.514" fill="#fff"/><rect width="32.26" height="32.26" x="0" y="64.51" fill="#f9e9c2"/><path fill="#3e5b6b" d="M 0 96.77000000000001 A 32.26 32.26 0 0 1 32.26 64.51 L 0 96.77000000000001 A 32.26 32.26 0 0 0 32.26 64.51"/><rect width="32.26" height="32.26" x="32.26" y="64.51" fill="#f1d07b"/><path fill="#f9eac4" d="M 32.26 96.77000000000001 A 32.26 32.26 0 0 0 64.52 64.51 L 32.26 64.51"/><rect width="32.26" height="32.26" x="0" y="96.77" fill="#f5db9c"/><path fill="#556f7d" d="M 0 129.03 A 32.26 32.26 0 0 1 32.26 96.77 L 0 129.03 A 32.26 32.26 0 0 0 32.26 96.77"/><rect width="32.26" height="32.26" x="32.26" y="96.77" fill="#d1d8dc"/><path fill="#fbf3dd" d="M 32.26 96.77 A 32.26 32.26 0 0 0 64.52 129.03 L 64.52 96.77"/><rect width="64.514" height="64.514" x="64.514" y="64.514" fill="#fff"/><rect width="32.26" height="32.26" x="64.51" y="64.51" fill="#f9ecca"/><path fill="#516c7a" d="M 64.51 96.77000000000001 A 32.26 32.26 0 0 1 96.77000000000001 64.51 L 96.77000000000001 96.77000000000001"/><rect width="32.26" height="32.26" x="96.77" y="64.51" fill="#2a4a5c"/><path fill="#edf0f1" d="M 96.77 64.51 A 32.26 32.26 0 0 0 129.03 96.77000000000001 L 129.03 64.51"/><rect width="32.26" height="32.26" x="64.51" y="96.77" fill="#f4d893"/><path fill="#fbf0d6" d="M 64.51 96.77 A 32.26 32.26 0 0 1 96.77000000000001 129.03 L 64.51 129.03"/><rect width="32.26" height="32.26" x="96.77" y="96.77" fill="#f0cd75"/><path fill="#c4cdd2" d="M 96.77 96.77 A 32.26 32.26 0 0 1 129.03 129.03 L 96.77 129.03"/><rect width="64.51" height="64.51" x="129.03" y="64.51" fill="#f4d995"/><path fill="#f3d78f" d="M 129.03 129.02 A 64.51 64.51 0 0 0 193.54000000000002 64.51 L 129.03 64.51"/><rect width="64.51" height="64.51" x="193.54" y="64.51" fill="#f8e8c0"/><path fill="#f9ebc7" d="M 193.54 129.02 A 64.51 64.51 0 0 1 258.05 64.51 L 193.54 129.02 A 64.51 64.51 0 0 0 258.05 64.51"/><rect width="64.514" height="64.514" x="258.057" y="64.514" fill="#fff"/><rect width="32.26" height="32.26" x="258.06" y="64.51" fill="#faedcc"/><path fill="#476372" d="M 258.06 64.51 A 32.26 32.26 0 0 1 290.32 96.77000000000001 L 258.06 96.77000000000001"/><rect width="32.26" height="32.26" x="290.31" y="64.51" fill="#fbfcfc"/><path fill="#f7e3b0" d="M 290.31 64.51 A 32.26 32.26 0 0 1 322.57 96.77000000000001 L 290.31 64.51 A 32.26 32.26 0 0 0 322.57 96.77000000000001"/><rect width="32.26" height="32.26" x="258.06" y="96.77" fill="#627a87"/><path fill="#e8ecee" d="M 258.06 96.77 A 32.26 32.26 0 0 1 290.32 129.03 L 258.06 96.77 A 32.26 32.26 0 0 0 290.32 129.03"/><rect width="32.26" height="32.26" x="290.31" y="96.77" fill="#f8e7bc"/><path fill="#5b7482" d="M 290.31 129.03 A 32.26 32.26 0 0 1 322.57 96.77 L 290.31 129.03 A 32.26 32.26 0 0 0 322.57 96.77"/><rect width="64.514" height="64.514" x="322.571" y="64.514" fill="#fff"/><rect width="32.26" height="32.26" x="322.57" y="64.51" fill="#27485a"/><path fill="#f4da99" d="M 322.57 64.51 A 32.26 32.26 0 0 1 354.83 96.77000000000001 L 322.57 64.51 A 32.26 32.26 0 0 0 354.83 96.77000000000001"/><rect width="32.26" height="32.26" x="354.83" y="64.51" fill="#fdf7ea"/><path fill="#f0cd73" d="M 354.83 64.51 A 32.26 32.26 0 0 1 387.09 96.77000000000001 L 354.83 96.77000000000001"/><rect width="32.26" height="32.26" x="322.57" y="96.77" fill="#f1ce77"/><path fill="#6a808d" d="M 322.57 129.03 A 32.26 32.26 0 0 1 354.83 96.77 L 354.83 129.03"/><rect width="32.26" height="32.26" x="354.83" y="96.77" fill="#708692"/><path fill="#f4d996" d="M 354.83 129.03 A 32.26 32.26 0 0 1 387.09 96.77 L 354.83 129.03 A 32.26 32.26 0 0 0 387.09 96.77"/><rect width="64.51" height="64.51" x="387.09" y="64.51" fill="#fcfdfd"/><path fill="#f9e9c3" d="M 387.09 64.51 A 64.51 64.51 0 0 0 451.59999999999997 129.02 L 451.59999999999997 64.51"/><rect width="64.51" height="64.51" x="451.6" y="64.51" fill="#8d9ea8"/><path fill="#fbf0d5" d="M 451.6 64.51 A 64.51 64.51 0 0 0 516.11 129.02 L 516.11 64.51"/><rect width="64.514" height="64.514" x="516.114" y="64.514" fill="#fff"/><rect width="32.26" height="32.26" x="516.11" y="64.51" fill="#cdd5d9"/><path fill="#fdf8ec" d="M 516.11 64.51 A 32.26 32.26 0 0 0 548.37 96.77000000000001 L 548.37 64.51"/><rect width="32.26" height="32.26" x="548.37" y="64.51" fill="#9baab3"/><path fill="#f2d180" d="M 548.37 64.51 A 32.26 32.26 0 0 1 580.63 96.77000000000001 L 548.37 64.51 A 32.26 32.26 0 0 0 580.63 96.77000000000001"/><rect width="32.26" height="32.26" x="516.11" y="96.77" fill="#627a87"/><path fill="#6e8490" d="M 516.11 96.77 A 32.26 32.26 0 0 1 548.37 129.03 L 516.11 129.03"/><rect width="32.26" height="32.26" x="548.37" y="96.77" fill="#f6e0a8"/><path fill="#f4da97" d="M 548.37 96.77 A 32.26 32.26 0 0 1 580.63 129.03 L 548.37 96.77 A 32.26 32.26 0 0 0 580.63 129.03"/><rect width="64.51" height="64.51" x="580.63" y="64.51" fill="#365566"/><path fill="#b5c0c6" d="M 580.63 64.51 A 64.51 64.51 0 0 1 645.14 129.02 L 580.63 64.51 A 64.51 64.51 0 0 0 645.14 129.02"/><rect width="64.51" height="64.51" x="645.14" y="64.51" fill="#fcf4e1"/><path fill="#9dacb4" d="M 645.14 129.02 A 64.51 64.51 0 0 1 709.65 64.51 L 709.65 129.02"/><rect width="64.51" height="64.51" x="709.66" y="64.51" fill="#f5dea3"/><path fill="#f4d893" d="M 709.66 129.02 A 64.51 64.51 0 0 0 774.17 64.51 L 709.66 64.51"/><rect width="64.514" height="64.514" x="774.171" y="64.514" fill="#fff"/><rect width="32.26" height="32.26" x="774.17" y="64.51" fill="#f9eac4"/><path fill="#fdf8ec" d="M 774.17 64.51 A 32.26 32.26 0 0 1 806.43 96.77000000000001 L 774.17 64.51 A 32.26 32.26 0 0 0 806.43 96.77000000000001"/><rect width="32.26" height="32.26" x="806.43" y="64.51" fill="#f9ecca"/><path fill="#fbfcfc" d="M 806.43 96.77000000000001 A 32.26 32.26 0 0 1 838.6899999999999 64.51 L 838.6899999999999 96.77000000000001"/><rect width="32.26" height="32.26" x="774.17" y="96.77" fill="#9eadb5"/><path fill="#9eadb5" d="M 774.17 129.03 A 32.26 32.26 0 0 1 806.43 96.77 L 774.17 129.03 A 32.26 32.26 0 0 0 806.43 96.77"/><rect width="32.26" height="32.26" x="806.43" y="96.77" fill="#f5dda1"/><path fill="#c9d2d6" d="M 806.43 129.03 A 32.26 32.26 0 0 1 838.6899999999999 96.77 L 838.6899999999999 129.03"/><rect width="64.51" height="64.51" x="0" y="129.03" fill="#faeed1"/><path fill="#f1d07d" d="M 0 193.54000000000002 A 64.51 64.51 0 0 1 64.51 129.03 L 64.51 193.54000000000002"/><rect width="64.51" height="64.51" x="64.51" y="129.03" fill="#a1afb7"/><path fill="#fcf6e5" d="M 64.51 129.03 A 64.51 64.51 0 0 0 129.02 193.54000000000002 L 129.02 129.03"/><rect width="64.51" height="64.51" x="129.03" y="129.03" fill="#ced6da"/><path fill="#bdc7cc" d="M 129.03 129.03 A 64.51 64.51 0 0 1 193.54000000000002 193.54000000000002 L 129.03 193.54000000000002"/><rect width="64.514" height="64.514" x="193.543" y="129.029" fill="#fff"/><rect width="32.26" height="32.26" x="193.54" y="129.03" fill="#536d7c"/><path fill="#f2d384" d="M 193.54 129.03 A 32.26 32.26 0 0 0 225.79999999999998 161.29 L 225.79999999999998 129.03"/><rect width="32.26" height="32.26" x="225.8" y="129.03" fill="#2d4d5e"/><path fill="#f8e9c1" d="M 225.8 129.03 A 32.26 32.26 0 0 1 258.06 161.29 L 225.8 129.03 A 32.26 32.26 0 0 0 258.06 161.29"/><rect width="32.26" height="32.26" x="193.54" y="161.29" fill="#fcf6e6"/><path fill="#f0cd75" d="M 193.54 161.29 A 32.26 32.26 0 0 1 225.79999999999998 193.54999999999998 L 193.54 161.29 A 32.26 32.26 0 0 0 225.79999999999998 193.54999999999998"/><rect width="32.26" height="32.26" x="225.8" y="161.29" fill="#516c7a"/><path fill="#f5dfa5" d="M 225.8 161.29 A 32.26 32.26 0 0 1 258.06 193.54999999999998 L 225.8 161.29 A 32.26 32.26 0 0 0 258.06 193.54999999999998"/><rect width="64.51" height="64.51" x="258.06" y="129.03" fill="#375666"/><path fill="#f7e5b5" d="M 258.06 129.03 A 64.51 64.51 0 0 0 322.57 193.54000000000002 L 322.57 129.03"/><rect width="64.514" height="64.514" x="322.571" y="129.029" fill="#fff"/><rect width="32.26" height="32.26" x="322.57" y="129.03" fill="#f3d790"/><path fill="#dbe0e3" d="M 322.57 129.03 A 32.26 32.26 0 0 1 354.83 161.29 L 322.57 161.29"/><rect width="32.26" height="32.26" x="354.83" y="129.03" fill="#748994"/><path fill="#cbd3d7" d="M 354.83 161.29 A 32.26 32.26 0 0 1 387.09 129.03 L 387.09 161.29"/><rect width="32.26" height="32.26" x="322.57" y="161.29" fill="#b1bdc4"/><path fill="#f4d996" d="M 322.57 161.29 A 32.26 32.26 0 0 1 354.83 193.54999999999998 L 322.57 161.29 A 32.26 32.26 0 0 0 354.83 193.54999999999998"/><rect width="32.26" height="32.26" x="354.83" y="161.29" fill="#fdfefe"/><path fill="#fefbf4" d="M 354.83 161.29 A 32.26 32.26 0 0 0 387.09 193.54999999999998 L 387.09 161.29"/><rect width="64.514" height="64.514" x="387.086" y="129.029" fill="#fff"/><rect width="32.26" height="32.26" x="387.09" y="129.03" fill="#f2d180"/><path fill="#375666" d="M 387.09 129.03 A 32.26 32.26 0 0 0 419.34999999999997 161.29 L 419.34999999999997 129.03"/><rect width="32.26" height="32.26" x="419.34" y="129.03" fill="#fffefc"/><path fill="#faeecf" d="M 419.34 161.29 A 32.26 32.26 0 0 1 451.59999999999997 129.03 L 451.59999999999997 161.29"/><rect width="32.26" height="32.26" x="387.09" y="161.29" fill="#fcf3de"/><path fill="#3c5969" d="M 387.09 193.54999999999998 A 32.26 32.26 0 0 1 419.34999999999997 161.29 L 419.34999999999997 193.54999999999998"/><rect width="32.26" height="32.26" x="419.34" y="161.29" fill="#768b96"/><path fill="#fafbfb" d="M 419.34 161.29 A 32.26 32.26 0 0 1 451.59999999999997 193.54999999999998 L 419.34 161.29 A 32.26 32.26 0 0 0 451.59999999999997 193.54999999999998"/><rect width="64.514" height="64.514" x="451.6" y="129.029" fill="#fff"/><rect width="32.26" height="32.26" x="451.6" y="129.03" fill="#fefefe"/><path fill="#98a8b0" d="M 451.6 161.29 A 32.26 32.26 0 0 1 483.86 129.03 L 451.6 161.29 A 32.26 32.26 0 0 0 483.86 129.03"/><rect width="32.26" height="32.26" x="483.86" y="129.03" fill="#f7e3b0"/><path fill="#315061" d="M 483.86 129.03 A 32.26 32.26 0 0 0 516.12 161.29 L 516.12 129.03"/><rect width="32.26" height="32.26" x="451.6" y="161.29" fill="#c5ced3"/><path fill="#a8b5bd" d="M 451.6 193.54999999999998 A 32.26 32.26 0 0 1 483.86 161.29 L 483.86 193.54999999999998"/><rect width="32.26" height="32.26" x="483.86" y="161.29" fill="#fffefb"/><path fill="#f9ecc9" d="M 483.86 161.29 A 32.26 32.26 0 0 0 516.12 193.54999999999998 L 516.12 161.29"/><rect width="64.514" height="64.514" x="516.114" y="129.029" fill="#fff"/><rect width="32.26" height="32.26" x="516.11" y="129.03" fill="#f1cf78"/><path fill="#f2d282" d="M 516.11 161.29 A 32.26 32.26 0 0 0 548.37 129.03 L 516.11 129.03"/><rect width="32.26" height="32.26" x="548.37" y="129.03" fill="#f2d486"/><path fill="#e3e8ea" d="M 548.37 161.29 A 32.26 32.26 0 0 1 580.63 129.03 L 548.37 161.29 A 32.26 32.26 0 0 0 580.63 129.03"/><rect width="32.26" height="32.26" x="516.11" y="161.29" fill="#fefdf9"/><path fill="#f2d386" d="M 516.11 193.54999999999998 A 32.26 32.26 0 0 1 548.37 161.29 L 548.37 193.54999999999998"/><rect width="32.26" height="32.26" x="548.37" y="161.29" fill="#eef1f2"/><path fill="#f9eac4" d="M 548.37 161.29 A 32.26 32.26 0 0 1 580.63 193.54999999999998 L 548.37 161.29 A 32.26 32.26 0 0 0 580.63 193.54999999999998"/><rect width="64.51" height="64.51" x="580.63" y="129.03" fill="#375566"/><path fill="#bcc6cc" d="M 580.63 193.54000000000002 A 64.51 64.51 0 0 1 645.14 129.03 L 645.14 193.54000000000002"/><rect width="64.51" height="64.51" x="645.14" y="129.03" fill="#e7ebed"/><path fill="#fdf8eb" d="M 645.14 193.54000000000002 A 64.51 64.51 0 0 1 709.65 129.03 L 645.14 193.54000000000002 A 64.51 64.51 0 0 0 709.65 129.03"/><rect width="64.51" height="64.51" x="709.66" y="129.03" fill="#f7e5b8"/><path fill="#f3d68d" d="M 709.66 129.03 A 64.51 64.51 0 0 1 774.17 193.54000000000002 L 709.66 193.54000000000002"/><rect width="64.514" height="64.514" x="774.171" y="129.029" fill="#fff"/><rect width="32.26" height="32.26" x="774.17" y="129.03" fill="#7d909b"/><path fill="#f2d180" d="M 774.17 129.03 A 32.26 32.26 0 0 0 806.43 161.29 L 806.43 129.03"/><rect width="32.26" height="32.26" x="806.43" y="129.03" fill="#fdfaf1"/><path fill="#2f4f60" d="M 806.43 161.29 A 32.26 32.26 0 0 1 838.6899999999999 129.03 L 838.6899999999999 161.29"/><rect width="32.26" height="32.26" x="774.17" y="161.29" fill="#677e8b"/><path fill="#f4db9b" d="M 774.17 193.54999999999998 A 32.26 32.26 0 0 1 806.43 161.29 L 774.17 193.54999999999998 A 32.26 32.26 0 0 0 806.43 161.29"/><rect width="32.26" height="32.26" x="806.43" y="161.29" fill="#4e6977"/><path fill="#446170" d="M 806.43 193.54999999999998 A 32.26 32.26 0 0 0 838.6899999999999 161.29 L 806.43 161.29"/><rect width="64.51" height="64.51" x="0" y="193.54" fill="#f6e2ae"/><path fill="#fcf4e1" d="M 0 193.54 A 64.51 64.51 0 0 1 64.51 258.05 L 0 258.05"/><rect width="64.514" height="64.514" x="64.514" y="193.543" fill="#fff"/><rect width="32.26" height="32.26" x="64.51" y="193.54" fill="#4a6675"/><path fill="#f1d17e" d="M 64.51 193.54 A 32.26 32.26 0 0 1 96.77000000000001 225.79999999999998 L 64.51 193.54 A 32.26 32.26 0 0 0 96.77000000000001 225.79999999999998"/><rect width="32.26" height="32.26" x="96.77" y="193.54" fill="#fdf8eb"/><path fill="#f9ecca" d="M 96.77 193.54 A 32.26 32.26 0 0 1 129.03 225.79999999999998 L 96.77 225.79999999999998"/><rect width="32.26" height="32.26" x="64.51" y="225.8" fill="#c4cdd2"/><path fill="#fdf8ed" d="M 64.51 258.06 A 32.26 32.26 0 0 0 96.77000000000001 225.8 L 64.51 225.8"/><rect width="32.26" height="32.26" x="96.77" y="225.8" fill="#506b79"/><path fill="#fdf7ea" d="M 96.77 258.06 A 32.26 32.26 0 0 0 129.03 225.8 L 96.77 225.8"/><rect width="64.51" height="64.51" x="129.03" y="193.54" fill="#fcf5e2"/><path fill="#f5dea3" d="M 129.03 193.54 A 64.51 64.51 0 0 1 193.54000000000002 258.05 L 129.03 193.54 A 64.51 64.51 0 0 0 193.54000000000002 258.05"/><rect width="64.51" height="64.51" x="193.54" y="193.54" fill="#f8e6ba"/><path fill="#faedcd" d="M 193.54 258.05 A 64.51 64.51 0 0 1 258.05 193.54 L 193.54 258.05 A 64.51 64.51 0 0 0 258.05 193.54"/><rect width="64.514" height="64.514" x="258.057" y="193.543" fill="#fff"/><rect width="32.26" height="32.26" x="258.06" y="193.54" fill="#f2d280"/><path fill="#fefaf2" d="M 258.06 193.54 A 32.26 32.26 0 0 0 290.32 225.79999999999998 L 290.32 193.54"/><rect width="32.26" height="32.26" x="290.31" y="193.54" fill="#dee3e6"/><path fill="#7e919c" d="M 290.31 193.54 A 32.26 32.26 0 0 1 322.57 225.79999999999998 L 290.31 193.54 A 32.26 32.26 0 0 0 322.57 225.79999999999998"/><rect width="32.26" height="32.26" x="258.06" y="225.8" fill="#405d6d"/><path fill="#abb7be" d="M 258.06 225.8 A 32.26 32.26 0 0 0 290.32 258.06 L 290.32 225.8"/><rect width="32.26" height="32.26" x="290.31" y="225.8" fill="#a8b6bd"/><path fill="#b0bcc2" d="M 290.31 258.06 A 32.26 32.26 0 0 1 322.57 225.8 L 322.57 258.06"/><rect width="64.51" height="64.51" x="322.57" y="193.54" fill="#aab7be"/><path fill="#f4d995" d="M 322.57 193.54 A 64.51 64.51 0 0 0 387.08 258.05 L 387.08 193.54"/><rect width="64.514" height="64.514" x="387.086" y="193.543" fill="#fff"/><rect width="32.26" height="32.26" x="387.09" y="193.54" fill="#b4c0c6"/><path fill="#f2d385" d="M 387.09 225.79999999999998 A 32.26 32.26 0 0 1 419.34999999999997 193.54 L 419.34999999999997 225.79999999999998"/><rect width="32.26" height="32.26" x="419.34" y="193.54" fill="#516b7a"/><path fill="#f5dda2" d="M 419.34 193.54 A 32.26 32.26 0 0 1 451.59999999999997 225.79999999999998 L 419.34 193.54 A 32.26 32.26 0 0 0 451.59999999999997 225.79999999999998"/><rect width="32.26" height="32.26" x="387.09" y="225.8" fill="#fefcf8"/><path fill="#f7e5b6" d="M 387.09 225.8 A 32.26 32.26 0 0 1 419.34999999999997 258.06 L 387.09 258.06"/><rect width="32.26" height="32.26" x="419.34" y="225.8" fill="#b9c4ca"/><path fill="#8497a1" d="M 419.34 225.8 A 32.26 32.26 0 0 1 451.59999999999997 258.06 L 419.34 258.06"/><rect width="64.51" height="64.51" x="451.6" y="193.54" fill="#fbf1d9"/><path fill="#fcf5e3" d="M 451.6 193.54 A 64.51 64.51 0 0 0 516.11 258.05 L 516.11 193.54"/><rect width="64.514" height="64.514" x="516.114" y="193.543" fill="#fff"/><rect width="32.26" height="32.26" x="516.11" y="193.54" fill="#f9ebc8"/><path fill="#566f7d" d="M 516.11 193.54 A 32.26 32.26 0 0 1 548.37 225.79999999999998 L 516.11 225.79999999999998"/><rect width="32.26" height="32.26" x="548.37" y="193.54" fill="#fcf4e1"/><path fill="#8c9da7" d="M 548.37 193.54 A 32.26 32.26 0 0 0 580.63 225.79999999999998 L 580.63 193.54"/><rect width="32.26" height="32.26" x="516.11" y="225.8" fill="#f8e7bd"/><path fill="#edf0f1" d="M 516.11 225.8 A 32.26 32.26 0 0 0 548.37 258.06 L 548.37 225.8"/><rect width="32.26" height="32.26" x="548.37" y="225.8" fill="#f5dda1"/><path fill="#fdf7e7" d="M 548.37 225.8 A 32.26 32.26 0 0 0 580.63 258.06 L 580.63 225.8"/><rect width="64.514" height="64.514" x="580.629" y="193.543" fill="#fff"/><rect width="32.26" height="32.26" x="580.63" y="193.54" fill="#f1cf7a"/><path fill="#f7e3b0" d="M 580.63 193.54 A 32.26 32.26 0 0 0 612.89 225.79999999999998 L 612.89 193.54"/><rect width="32.26" height="32.26" x="612.89" y="193.54" fill="#e9ecee"/><path fill="#f8e8be" d="M 612.89 193.54 A 32.26 32.26 0 0 1 645.15 225.79999999999998 L 612.89 193.54 A 32.26 32.26 0 0 0 645.15 225.79999999999998"/><rect width="32.26" height="32.26" x="580.63" y="225.8" fill="#a7b5bc"/><path fill="#f6e1ab" d="M 580.63 225.8 A 32.26 32.26 0 0 1 612.89 258.06 L 580.63 258.06"/><rect width="32.26" height="32.26" x="612.89" y="225.8" fill="#f7e3b2"/><path fill="#f7e5b7" d="M 612.89 258.06 A 32.26 32.26 0 0 1 645.15 225.8 L 612.89 258.06 A 32.26 32.26 0 0 0 645.15 225.8"/><rect width="64.514" height="64.514" x="645.143" y="193.543" fill="#fff"/><rect width="32.26" height="32.26" x="645.14" y="193.54" fill="#9dacb4"/><path fill="#fcfdfd" d="M 645.14 225.79999999999998 A 32.26 32.26 0 0 1 677.4 193.54 L 677.4 225.79999999999998"/><rect width="32.26" height="32.26" x="677.4" y="193.54" fill="#738994"/><path fill="#f2d180" d="M 677.4 193.54 A 32.26 32.26 0 0 0 709.66 225.79999999999998 L 709.66 193.54"/><rect width="32.26" height="32.26" x="645.14" y="225.8" fill="#27485a"/><path fill="#f4d994" d="M 645.14 258.06 A 32.26 32.26 0 0 0 677.4 225.8 L 645.14 225.8"/><rect width="32.26" height="32.26" x="677.4" y="225.8" fill="#355464"/><path fill="#abb7be" d="M 677.4 225.8 A 32.26 32.26 0 0 0 709.66 258.06 L 709.66 225.8"/><rect width="64.51" height="64.51" x="709.66" y="193.54" fill="#fffefc"/><path fill="#798d98" d="M 709.66 193.54 A 64.51 64.51 0 0 1 774.17 258.05 L 709.66 193.54 A 64.51 64.51 0 0 0 774.17 258.05"/><rect width="64.514" height="64.514" x="774.171" y="193.543" fill="#fff"/><rect width="32.26" height="32.26" x="774.17" y="193.54" fill="#fefdf9"/><path fill="#b3bfc5" d="M 774.17 225.79999999999998 A 32.26 32.26 0 0 1 806.43 193.54 L 774.17 225.79999999999998 A 32.26 32.26 0 0 0 806.43 193.54"/><rect width="32.26" height="32.26" x="806.43" y="193.54" fill="#6f8591"/><path fill="#627a87" d="M 806.43 193.54 A 32.26 32.26 0 0 0 838.6899999999999 225.79999999999998 L 838.6899999999999 193.54"/><rect width="32.26" height="32.26" x="774.17" y="225.8" fill="#f4da98"/><path fill="#f9ebc8" d="M 774.17 258.06 A 32.26 32.26 0 0 1 806.43 225.8 L 806.43 258.06"/><rect width="32.26" height="32.26" x="806.43" y="225.8" fill="#91a2ab"/><path fill="#8799a3" d="M 806.43 258.06 A 32.26 32.26 0 0 1 838.6899999999999 225.8 L 806.43 258.06 A 32.26 32.26 0 0 0 838.6899999999999 225.8"/><rect width="64.514" height="64.514" x="0" y="258.057" fill="#fff"/><rect width="32.26" height="32.26" x="0" y="258.06" fill="#edf0f1"/><path fill="#7c909b" d="M 0 290.32 A 32.26 32.26 0 0 1 32.26 258.06 L 0 290.32 A 32.26 32.26 0 0 0 32.26 258.06"/><rect width="32.26" height="32.26" x="32.26" y="258.06" fill="#3a5868"/><path fill="#d6dcdf" d="M 32.26 258.06 A 32.26 32.26 0 0 1 64.52 290.32 L 32.26 258.06 A 32.26 32.26 0 0 0 64.52 290.32"/><rect width="32.26" height="32.26" x="0" y="290.31" fill="#b1bdc3"/><path fill="#3a5868" d="M 0 322.57 A 32.26 32.26 0 0 1 32.26 290.31 L 32.26 322.57"/><rect width="32.26" height="32.26" x="32.26" y="290.31" fill="#f4d995"/><path fill="#f4da97" d="M 32.26 322.57 A 32.26 32.26 0 0 1 64.52 290.31 L 32.26 322.57 A 32.26 32.26 0 0 0 64.52 290.31"/><rect width="64.51" height="64.51" x="64.51" y="258.06" fill="#fdf8eb"/><path fill="#fbf0d6" d="M 64.51 258.06 A 64.51 64.51 0 0 1 129.02 322.57 L 64.51 322.57"/><rect width="64.51" height="64.51" x="129.03" y="258.06" fill="#647b88"/><path fill="#f9ebc8" d="M 129.03 322.57 A 64.51 64.51 0 0 1 193.54000000000002 258.06 L 193.54000000000002 322.57"/><rect width="64.51" height="64.51" x="193.54" y="258.06" fill="#f8e9c1"/><path fill="#f6e1ab" d="M 193.54 322.57 A 64.51 64.51 0 0 0 258.05 258.06 L 193.54 258.06"/><rect width="64.51" height="64.51" x="258.06" y="258.06" fill="#faedce"/><path fill="#b1bdc3" d="M 258.06 258.06 A 64.51 64.51 0 0 1 322.57 322.57 L 258.06 322.57"/><rect width="64.51" height="64.51" x="322.57" y="258.06" fill="#f4d995"/><path fill="#f5dc9d" d="M 322.57 322.57 A 64.51 64.51 0 0 0 387.08 258.06 L 322.57 258.06"/><rect width="64.51" height="64.51" x="387.09" y="258.06" fill="#81949e"/><path fill="#f1ce78" d="M 387.09 322.57 A 64.51 64.51 0 0 0 451.59999999999997 258.06 L 387.09 258.06"/><rect width="64.51" height="64.51" x="451.6" y="258.06" fill="#faefd4"/><path fill="#d6dde0" d="M 451.6 322.57 A 64.51 64.51 0 0 1 516.11 258.06 L 451.6 322.57 A 64.51 64.51 0 0 0 516.11 258.06"/><rect width="64.51" height="64.51" x="516.11" y="258.06" fill="#faefd2"/><path fill="#798d98" d="M 516.11 322.57 A 64.51 64.51 0 0 1 580.62 258.06 L 516.11 322.57 A 64.51 64.51 0 0 0 580.62 258.06"/><rect width="64.51" height="64.51" x="580.63" y="258.06" fill="#fcf6e6"/><path fill="#4a6675" d="M 580.63 258.06 A 64.51 64.51 0 0 1 645.14 322.57 L 580.63 322.57"/><rect width="64.51" height="64.51" x="645.14" y="258.06" fill="#8497a1"/><path fill="#c1cacf" d="M 645.14 322.57 A 64.51 64.51 0 0 1 709.65 258.06 L 709.65 322.57"/><rect width="64.514" height="64.514" x="709.657" y="258.057" fill="#fff"/><rect width="32.26" height="32.26" x="709.66" y="258.06" fill="#f9ecca"/><path fill="#677e8b" d="M 709.66 258.06 A 32.26 32.26 0 0 0 741.92 290.32 L 741.92 258.06"/><rect width="32.26" height="32.26" x="741.91" y="258.06" fill="#f9ebc7"/><path fill="#f1d07b" d="M 741.91 258.06 A 32.26 32.26 0 0 1 774.17 290.32 L 741.91 290.32"/><rect width="32.26" height="32.26" x="709.66" y="290.31" fill="#f5dda0"/><path fill="#fdf8ea" d="M 709.66 322.57 A 32.26 32.26 0 0 0 741.92 290.31 L 709.66 290.31"/><rect width="32.26" height="32.26" x="741.91" y="290.31" fill="#b0bcc3"/><path fill="#f9ecca" d="M 741.91 322.57 A 32.26 32.26 0 0 1 774.17 290.31 L 741.91 322.57 A 32.26 32.26 0 0 0 774.17 290.31"/><rect width="64.514" height="64.514" x="774.171" y="258.057" fill="#fff"/><rect width="32.26" height="32.26" x="774.17" y="258.06" fill="#f8e9c1"/><path fill="#f4d996" d="M 774.17 258.06 A 32.26 32.26 0 0 0 806.43 290.32 L 806.43 258.06"/><rect width="32.26" height="32.26" x="806.43" y="258.06" fill="#6b828e"/><path fill="#3a5869" d="M 806.43 290.32 A 32.26 32.26 0 0 0 838.6899999999999 258.06 L 806.43 258.06"/><rect width="32.26" height="32.26" x="774.17" y="290.31" fill="#fefdf9"/><path fill="#b8c3c9" d="M 774.17 290.31 A 32.26 32.26 0 0 0 806.43 322.57 L 806.43 290.31"/><rect width="32.26" height="32.26" x="806.43" y="290.31" fill="#375566"/><path fill="#365566" d="M 806.43 290.31 A 32.26 32.26 0 0 1 838.6899999999999 322.57 L 806.43 290.31 A 32.26 32.26 0 0 0 838.6899999999999 322.57"/><rect width="64.514" height="64.514" x="0" y="322.571" fill="#fff"/><rect width="32.26" height="32.26" x="0" y="322.57" fill="#f3d68e"/><path fill="#f5dc9e" d="M 0 322.57 A 32.26 32.26 0 0 1 32.26 354.83 L 0 322.57 A 32.26 32.26 0 0 0 32.26 354.83"/><rect width="32.26" height="32.26" x="32.26" y="322.57" fill="#c7cfd4"/><path fill="#d2d9dd" d="M 32.26 354.83 A 32.26 32.26 0 0 0 64.52 322.57 L 32.26 322.57"/><rect width="32.26" height="32.26" x="0" y="354.83" fill="#adbac0"/><path fill="#f5dda1" d="M 0 354.83 A 32.26 32.26 0 0 1 32.26 387.09 L 0 354.83 A 32.26 32.26 0 0 0 32.26 387.09"/><rect width="32.26" height="32.26" x="32.26" y="354.83" fill="#fefefe"/><path fill="#c9d1d6" d="M 32.26 387.09 A 32.26 32.26 0 0 1 64.52 354.83 L 32.26 387.09 A 32.26 32.26 0 0 0 64.52 354.83"/><rect width="64.514" height="64.514" x="64.514" y="322.571" fill="#fff"/><rect width="32.26" height="32.26" x="64.51" y="322.57" fill="#f2d281"/><path fill="#ccd4d8" d="M 64.51 322.57 A 32.26 32.26 0 0 0 96.77000000000001 354.83 L 96.77000000000001 322.57"/><rect width="32.26" height="32.26" x="96.77" y="322.57" fill="#f6e1ac"/><path fill="#fefbf5" d="M 96.77 322.57 A 32.26 32.26 0 0 0 129.03 354.83 L 129.03 322.57"/><rect width="32.26" height="32.26" x="64.51" y="354.83" fill="#f1d17e"/><path fill="#fbf2da" d="M 64.51 387.09 A 32.26 32.26 0 0 1 96.77000000000001 354.83 L 64.51 387.09 A 32.26 32.26 0 0 0 96.77000000000001 354.83"/><rect width="32.26" height="32.26" x="96.77" y="354.83" fill="#f5dc9d"/><path fill="#f9ebc8" d="M 96.77 387.09 A 32.26 32.26 0 0 0 129.03 354.83 L 96.77 354.83"/><rect width="64.51" height="64.51" x="129.03" y="322.57" fill="#4a6574"/><path fill="#899ba5" d="M 129.03 322.57 A 64.51 64.51 0 0 1 193.54000000000002 387.08 L 129.03 387.08"/><rect width="64.514" height="64.514" x="193.543" y="322.571" fill="#fff"/><rect width="32.26" height="32.26" x="193.54" y="322.57" fill="#fcf4df"/><path fill="#b3bfc5" d="M 193.54 322.57 A 32.26 32.26 0 0 1 225.79999999999998 354.83 L 193.54 354.83"/><rect width="32.26" height="32.26" x="225.8" y="322.57" fill="#82959f"/><path fill="#e7ebed" d="M 225.8 322.57 A 32.26 32.26 0 0 0 258.06 354.83 L 258.06 322.57"/><rect width="32.26" height="32.26" x="193.54" y="354.83" fill="#fffefc"/><path fill="#faefd3" d="M 193.54 354.83 A 32.26 32.26 0 0 1 225.79999999999998 387.09 L 193.54 354.83 A 32.26 32.26 0 0 0 225.79999999999998 387.09"/><rect width="32.26" height="32.26" x="225.8" y="354.83" fill="#9faeb5"/><path fill="#425e6e" d="M 225.8 354.83 A 32.26 32.26 0 0 1 258.06 387.09 L 225.8 387.09"/><rect width="64.514" height="64.514" x="258.057" y="322.571" fill="#fff"/><rect width="32.26" height="32.26" x="258.06" y="322.57" fill="#657c89"/><path fill="#f2d486" d="M 258.06 354.83 A 32.26 32.26 0 0 0 290.32 322.57 L 258.06 322.57"/><rect width="32.26" height="32.26" x="290.31" y="322.57" fill="#faefd2"/><path fill="#274859" d="M 290.31 354.83 A 32.26 32.26 0 0 0 322.57 322.57 L 290.31 322.57"/><rect width="32.26" height="32.26" x="258.06" y="354.83" fill="#8e9fa9"/><path fill="#4f6978" d="M 258.06 387.09 A 32.26 32.26 0 0 0 290.32 354.83 L 258.06 354.83"/><rect width="32.26" height="32.26" x="290.31" y="354.83" fill="#97a7b0"/><path fill="#f2d486" d="M 290.31 387.09 A 32.26 32.26 0 0 1 322.57 354.83 L 322.57 387.09"/><rect width="64.514" height="64.514" x="322.571" y="322.571" fill="#fff"/><rect width="32.26" height="32.26" x="322.57" y="322.57" fill="#b8c3c9"/><path fill="#f3d68c" d="M 322.57 322.57 A 32.26 32.26 0 0 1 354.83 354.83 L 322.57 322.57 A 32.26 32.26 0 0 0 354.83 354.83"/><rect width="32.26" height="32.26" x="354.83" y="322.57" fill="#fafbfb"/><path fill="#c0cacf" d="M 354.83 322.57 A 32.26 32.26 0 0 1 387.09 354.83 L 354.83 322.57 A 32.26 32.26 0 0 0 387.09 354.83"/><rect width="32.26" height="32.26" x="322.57" y="354.83" fill="#f7e4b3"/><path fill="#f3d589" d="M 322.57 354.83 A 32.26 32.26 0 0 0 354.83 387.09 L 354.83 354.83"/><rect width="32.26" height="32.26" x="354.83" y="354.83" fill="#f2d180"/><path fill="#788d98" d="M 354.83 354.83 A 32.26 32.26 0 0 0 387.09 387.09 L 387.09 354.83"/><rect width="64.514" height="64.514" x="387.086" y="322.571" fill="#fff"/><rect width="32.26" height="32.26" x="387.09" y="322.57" fill="#fdf7e8"/><path fill="#a5b3ba" d="M 387.09 354.83 A 32.26 32.26 0 0 0 419.34999999999997 322.57 L 387.09 322.57"/><rect width="32.26" height="32.26" x="419.34" y="322.57" fill="#f7e4b3"/><path fill="#a6b3bb" d="M 419.34 322.57 A 32.26 32.26 0 0 1 451.59999999999997 354.83 L 419.34 322.57 A 32.26 32.26 0 0 0 451.59999999999997 354.83"/><rect width="32.26" height="32.26" x="387.09" y="354.83" fill="#faedce"/><path fill="#fcf5e4" d="M 387.09 387.09 A 32.26 32.26 0 0 1 419.34999999999997 354.83 L 387.09 387.09 A 32.26 32.26 0 0 0 419.34999999999997 354.83"/><rect width="32.26" height="32.26" x="419.34" y="354.83" fill="#a5b2ba"/><path fill="#2e4e5f" d="M 419.34 387.09 A 32.26 32.26 0 0 1 451.59999999999997 354.83 L 451.59999999999997 387.09"/><rect width="64.514" height="64.514" x="451.6" y="322.571" fill="#fff"/><rect width="32.26" height="32.26" x="451.6" y="322.57" fill="#fbf0d5"/><path fill="#f5dea4" d="M 451.6 354.83 A 32.26 32.26 0 0 0 483.86 322.57 L 451.6 322.57"/><rect width="32.26" height="32.26" x="483.86" y="322.57" fill="#fefdf9"/><path fill="#e6e9ec" d="M 483.86 354.83 A 32.26 32.26 0 0 1 516.12 322.57 L 483.86 354.83 A 32.26 32.26 0 0 0 516.12 322.57"/><rect width="32.26" height="32.26" x="451.6" y="354.83" fill="#f5dda1"/><path fill="#3f5d6c" d="M 451.6 387.09 A 32.26 32.26 0 0 0 483.86 354.83 L 451.6 354.83"/><rect width="32.26" height="32.26" x="483.86" y="354.83" fill="#f2d486"/><path fill="#f2d180" d="M 483.86 387.09 A 32.26 32.26 0 0 1 516.12 354.83 L 483.86 387.09 A 32.26 32.26 0 0 0 516.12 354.83"/><rect width="64.51" height="64.51" x="516.11" y="322.57" fill="#d5dcdf"/><path fill="#fefefe" d="M 516.11 322.57 A 64.51 64.51 0 0 1 580.62 387.08 L 516.11 387.08"/><rect width="64.51" height="64.51" x="580.63" y="322.57" fill="#516b7a"/><path fill="#f7e4b3" d="M 580.63 322.57 A 64.51 64.51 0 0 0 645.14 387.08 L 645.14 322.57"/><rect width="64.514" height="64.514" x="645.143" y="322.571" fill="#fff"/><rect width="32.26" height="32.26" x="645.14" y="322.57" fill="#f9eac3"/><path fill="#d6dde0" d="M 645.14 322.57 A 32.26 32.26 0 0 1 677.4 354.83 L 645.14 354.83"/><rect width="32.26" height="32.26" x="677.4" y="322.57" fill="#f1cf7a"/><path fill="#798d98" d="M 677.4 322.57 A 32.26 32.26 0 0 1 709.66 354.83 L 677.4 322.57 A 32.26 32.26 0 0 0 709.66 354.83"/><rect width="32.26" height="32.26" x="645.14" y="354.83" fill="#afbbc2"/><path fill="#a5b3ba" d="M 645.14 387.09 A 32.26 32.26 0 0 0 677.4 354.83 L 645.14 354.83"/><rect width="32.26" height="32.26" x="677.4" y="354.83" fill="#e4e8ea"/><path fill="#acb9c0" d="M 677.4 387.09 A 32.26 32.26 0 0 0 709.66 354.83 L 677.4 354.83"/><rect width="64.514" height="64.514" x="709.657" y="322.571" fill="#fff"/><rect width="32.26" height="32.26" x="709.66" y="322.57" fill="#fefbf5"/><path fill="#f7e3b0" d="M 709.66 354.83 A 32.26 32.26 0 0 0 741.92 322.57 L 709.66 322.57"/><rect width="32.26" height="32.26" x="741.91" y="322.57" fill="#fdfaf0"/><path fill="#d6dcdf" d="M 741.91 322.57 A 32.26 32.26 0 0 0 774.17 354.83 L 774.17 322.57"/><rect width="32.26" height="32.26" x="709.66" y="354.83" fill="#faefd2"/><path fill="#d7dde0" d="M 709.66 354.83 A 32.26 32.26 0 0 1 741.92 387.09 L 709.66 354.83 A 32.26 32.26 0 0 0 741.92 387.09"/><rect width="32.26" height="32.26" x="741.91" y="354.83" fill="#fbf3dd"/><path fill="#f5dea2" d="M 741.91 354.83 A 32.26 32.26 0 0 1 774.17 387.09 L 741.91 387.09"/><rect width="64.51" height="64.51" x="774.17" y="322.57" fill="#f0cc72"/><path fill="#f2d281" d="M 774.17 322.57 A 64.51 64.51 0 0 1 838.68 387.08 L 774.17 322.57 A 64.51 64.51 0 0 0 838.68 387.08"/><rect width="64.514" height="64.514" x="0" y="387.086" fill="#fff"/><rect width="32.26" height="32.26" x="0" y="387.09" fill="#4e6978"/><path fill="#f2d384" d="M 0 387.09 A 32.26 32.26 0 0 1 32.26 419.34999999999997 L 0 387.09 A 32.26 32.26 0 0 0 32.26 419.34999999999997"/><rect width="32.26" height="32.26" x="32.26" y="387.09" fill="#4f6978"/><path fill="#f9ecca" d="M 32.26 419.34999999999997 A 32.26 32.26 0 0 0 64.52 387.09 L 32.26 387.09"/><rect width="32.26" height="32.26" x="0" y="419.34" fill="#f3d58b"/><path fill="#27485a" d="M 0 419.34 A 32.26 32.26 0 0 1 32.26 451.59999999999997 L 0 419.34 A 32.26 32.26 0 0 0 32.26 451.59999999999997"/><rect width="32.26" height="32.26" x="32.26" y="419.34" fill="#d7dde0"/><path fill="#3c596a" d="M 32.26 419.34 A 32.26 32.26 0 0 0 64.52 451.59999999999997 L 64.52 419.34"/><rect width="64.51" height="64.51" x="64.51" y="387.09" fill="#3c5a6a"/><path fill="#dce1e4" d="M 64.51 387.09 A 64.51 64.51 0 0 0 129.02 451.59999999999997 L 129.02 387.09"/><rect width="64.51" height="64.51" x="129.03" y="387.09" fill="#6d8390"/><path fill="#f0cd73" d="M 129.03 387.09 A 64.51 64.51 0 0 1 193.54000000000002 451.59999999999997 L 129.03 387.09 A 64.51 64.51 0 0 0 193.54000000000002 451.59999999999997"/><rect width="64.514" height="64.514" x="193.543" y="387.086" fill="#fff"/><rect width="32.26" height="32.26" x="193.54" y="387.09" fill="#7d919c"/><path fill="#fffefb" d="M 193.54 419.34999999999997 A 32.26 32.26 0 0 1 225.79999999999998 387.09 L 225.79999999999998 419.34999999999997"/><rect width="32.26" height="32.26" x="225.8" y="387.09" fill="#9eadb5"/><path fill="#fbf0d6" d="M 225.8 419.34999999999997 A 32.26 32.26 0 0 1 258.06 387.09 L 258.06 419.34999999999997"/><rect width="32.26" height="32.26" x="193.54" y="419.34" fill="#f6e0a9"/><path fill="#e5e9eb" d="M 193.54 419.34 A 32.26 32.26 0 0 1 225.79999999999998 451.59999999999997 L 193.54 451.59999999999997"/><rect width="32.26" height="32.26" x="225.8" y="419.34" fill="#889aa4"/><path fill="#fcf4e1" d="M 225.8 451.59999999999997 A 32.26 32.26 0 0 1 258.06 419.34 L 225.8 451.59999999999997 A 32.26 32.26 0 0 0 258.06 419.34"/><rect width="64.51" height="64.51" x="258.06" y="387.09" fill="#f1f3f4"/><path fill="#faeed0" d="M 258.06 387.09 A 64.51 64.51 0 0 0 322.57 451.59999999999997 L 322.57 387.09"/><rect width="64.514" height="64.514" x="322.571" y="387.086" fill="#fff"/><rect width="32.26" height="32.26" x="322.57" y="387.09" fill="#a3b1b9"/><path fill="#fefcf7" d="M 322.57 419.34999999999997 A 32.26 32.26 0 0 0 354.83 387.09 L 322.57 387.09"/><rect width="32.26" height="32.26" x="354.83" y="387.09" fill="#3e5b6b"/><path fill="#f3d68c" d="M 354.83 419.34999999999997 A 32.26 32.26 0 0 1 387.09 387.09 L 354.83 419.34999999999997 A 32.26 32.26 0 0 0 387.09 387.09"/><rect width="32.26" height="32.26" x="322.57" y="419.34" fill="#57717f"/><path fill="#fcf4e1" d="M 322.57 419.34 A 32.26 32.26 0 0 1 354.83 451.59999999999997 L 322.57 451.59999999999997"/><rect width="32.26" height="32.26" x="354.83" y="419.34" fill="#fbf2da"/><path fill="#f2d281" d="M 354.83 451.59999999999997 A 32.26 32.26 0 0 0 387.09 419.34 L 354.83 419.34"/><rect width="64.51" height="64.51" x="387.09" y="387.09" fill="#425f6f"/><path fill="#faeed0" d="M 387.09 387.09 A 64.51 64.51 0 0 1 451.59999999999997 451.59999999999997 L 387.09 451.59999999999997"/><rect width="64.51" height="64.51" x="451.6" y="387.09" fill="#97a7b0"/><path fill="#fffefc" d="M 451.6 387.09 A 64.51 64.51 0 0 1 516.11 451.59999999999997 L 451.6 387.09 A 64.51 64.51 0 0 0 516.11 451.59999999999997"/><rect width="64.514" height="64.514" x="516.114" y="387.086" fill="#fff"/><rect width="32.26" height="32.26" x="516.11" y="387.09" fill="#faefd1"/><path fill="#395768" d="M 516.11 387.09 A 32.26 32.26 0 0 1 548.37 419.34999999999997 L 516.11 387.09 A 32.26 32.26 0 0 0 548.37 419.34999999999997"/><rect width="32.26" height="32.26" x="548.37" y="387.09" fill="#fffefd"/><path fill="#fff" d="M 548.37 387.09 A 32.26 32.26 0 0 1 580.63 419.34999999999997 L 548.37 419.34999999999997"/><rect width="32.26" height="32.26" x="516.11" y="419.34" fill="#feffff"/><path fill="#fcf3de" d="M 516.11 419.34 A 32.26 32.26 0 0 1 548.37 451.59999999999997 L 516.11 451.59999999999997"/><rect width="32.26" height="32.26" x="548.37" y="419.34" fill="#f0cd74"/><path fill="#365465" d="M 548.37 419.34 A 32.26 32.26 0 0 1 580.63 451.59999999999997 L 548.37 451.59999999999997"/><rect width="64.51" height="64.51" x="580.63" y="387.09" fill="#c5ced3"/><path fill="#3e5b6b" d="M 580.63 451.59999999999997 A 64.51 64.51 0 0 0 645.14 387.09 L 580.63 387.09"/><rect width="64.51" height="64.51" x="645.14" y="387.09" fill="#fffefb"/><path fill="#8597a2" d="M 645.14 387.09 A 64.51 64.51 0 0 1 709.65 451.59999999999997 L 645.14 387.09 A 64.51 64.51 0 0 0 709.65 451.59999999999997"/><rect width="64.51" height="64.51" x="709.66" y="387.09" fill="#f5dd9f"/><path fill="#f8e7bc" d="M 709.66 387.09 A 64.51 64.51 0 0 1 774.17 451.59999999999997 L 709.66 451.59999999999997"/><rect width="64.51" height="64.51" x="774.17" y="387.09" fill="#3a5868"/><path fill="#6c838f" d="M 774.17 387.09 A 64.51 64.51 0 0 0 838.68 451.59999999999997 L 838.68 387.09"/></g></svg>