<?xml version="1.0" standalone="no"?><svg xmlns:xlink="http://www.w3.org/1999/xlink" xmlns="http://www.w3.org/2000/svg" viewBox="0 0 1300 700.0089426774377" preserveAspectRatio="xMaxYMax slice"><g transform="scale(1.550064089188303)"><rect x="0" y="0" width="838.6857142857143" height="451.6" fill="#ffffff"/><rect x="0" y="0" width="64.51" height="64.51" fill="#f9e9c2"/><path d="M 0 64.51 A 64.51 64.51 0 0 1  64.51 0 L 0 64.51 A 64.51 64.51 0 0 0 64.51 0" fill="#8fa0a9"/><rect x="64.51428571428572" y="0" width="64.51428571428572" height="64.51428571428572" fill="#ffffff"/><rect x="64.51" y="0" width="32.26" height="32.26" fill="#718792"/><path d="M 64.51 0 A 32.26 32.26 0 0 1 96.77000000000001 32.26 L 64.51 32.26" fill="#faedcc"/><rect x="96.77" y="0" width="32.26" height="32.26" fill="#faefd2"/><path d="M 96.77 32.26 A 32.26 32.26 0 0 1  129.03 0 L 129.03 32.26" fill="#f9ebc7"/><rect x="64.51" y="32.26" width="32.26" height="32.26" fill="#9aa9b2"/><path d="M 64.51 32.26 A 32.26 32.26 0 0 1 96.77000000000001 64.52 L 64.51 64.52" fill="#f4db9b"/><rect x="96.77" y="32.26" width="32.26" height="32.26" fill="#9cabb3"/><path d="M 96.77 64.52 A 32.26 32.26 0 0 1  129.03 32.26 L 129.03 64.52" fill="#f7e3b0"/><rect x="129.02857142857144" y="0" width="64.51428571428572" height="64.51428571428572" fill="#ffffff"/><rect x="129.03" y="0" width="32.26" height="32.26" fill="#43606f"/><path d="M 129.03 0 A 32.26 32.26 0 0 0 161.29 32.26 L 161.29 0" fill="#8496a1"/><rect x="161.29" y="0" width="32.26" height="32.26" fill="#f4db9b"/><path d="M 161.29 32.26 A 32.26 32.26 0 0 0 193.54999999999998 0 L 161.29 0" fill="#f2f4f5"/><rect x="129.03" y="32.26" width="32.26" height="32.26" fill="#bbc5cb"/><path d="M 129.03 64.52 A 32.26 32.26 0 0 1  161.29 32.26 L 129.03 64.52 A 32.26 32.26 0 0 0 161.29 32.26" fill="#91a1ab"/><rect x="161.29" y="32.26" width="32.26" height="32.26" fill="#fbf2db"/><path d="M 161.29 64.52 A 32.26 32.26 0 0 1  193.54999999999998 32.26 L 161.29 64.52 A 32.26 32.26 0 0 0 193.54999999999998 32.26" fill="#738894"/><rect x="193.54" y="0" width="64.51" height="64.51" fill="#315162"/><path d="M 193.54 0 A 64.51 64.51 0 0 1  258.05 64.51 L 193.54 0 A 64.51 64.51 0 0 0 258.05 64.51" fill="#f9ebc8"/><rect x="258.0571428571429" y="0" width="64.51428571428572" height="64.51428571428572" fill="#ffffff"/><rect x="258.06" y="0" width="32.26" height="32.26" fill="#f9eac3"/><path d="M 258.06 32.26 A 32.26 32.26 0 0 1  290.32 0 L 258.06 32.26 A 32.26 32.26 0 0 0 290.32 0" fill="#fefcf8"/><rect x="290.31" y="0" width="32.26" height="32.26" fill="#43606f"/><path d="M 290.31 32.26 A 32.26 32.26 0 0 0 322.57 0 L 290.31 0" fill="#fbf2db"/><rect x="258.06" y="32.26" width="32.26" height="32.26" fill="#f3d78f"/><path d="M 258.06 64.52 A 32.26 32.26 0 0 1  290.32 32.26 L 290.32 64.52" fill="#8fa0a9"/><rect x="290.31" y="32.26" width="32.26" height="32.26" fill="#f8e7bc"/><path d="M 290.31 64.52 A 32.26 32.26 0 0 1  322.57 32.26 L 322.57 64.52" fill="#f0cc72"/><rect x="322.5714285714286" y="0" width="64.51428571428572" height="64.51428571428572" fill="#ffffff"/><rect x="322.57" y="0" width="32.26" height="32.26" fill="#d9dfe2"/><path d="M 322.57 32.26 A 32.26 32.26 0 0 0 354.83 0 L 322.57 0" fill="#5f7784"/><rect x="354.83" y="0" width="32.26" height="32.26" fill="#f2d487"/><path d="M 354.83 32.26 A 32.26 32.26 0 0 0 387.09 0 L 354.83 0" fill="#f7e3b1"/><rect x="322.57" y="32.26" width="32.26" height="32.26" fill="#f5dc9f"/><path d="M 322.57 64.52 A 32.26 32.26 0 0 1  354.83 32.26 L 354.83 64.52" fill="#fefcf7"/><rect x="354.83" y="32.26" width="32.26" height="32.26" fill="#f7e3b1"/><path d="M 354.83 32.26 A 32.26 32.26 0 0 1  387.09 64.52 L 354.83 32.26 A 32.26 32.26 0 0 0 387.09 64.52" fill="#f4d995"/><rect x="387.09" y="0" width="64.51" height="64.51" fill="#718792"/><path d="M 387.09 64.51 A 64.51 64.51 0 0 1  451.59999999999997 0 L 451.59999999999997 64.51" fill="#fdf8ed"/><rect x="451.6" y="0" width="64.51428571428572" height="64.51428571428572" fill="#ffffff"/><rect x="451.6" y="0" width="32.26" height="32.26" fill="#3a5868"/><path d="M 451.6 32.26 A 32.26 32.26 0 0 1  483.86 0 L 451.6 32.26 A 32.26 32.26 0 0 0 483.86 0" fill="#f8e8bf"/><rect x="483.86" y="0" width="32.26" height="32.26" fill="#d6dce0"/><path d="M 483.86 32.26 A 32.26 32.26 0 0 1  516.12 0 L 483.86 32.26 A 32.26 32.26 0 0 0 516.12 0" fill="#dde2e5"/><rect x="451.6" y="32.26" width="32.26" height="32.26" fill="#d4dbde"/><path d="M 451.6 64.52 A 32.26 32.26 0 0 1  483.86 32.26 L 451.6 64.52 A 32.26 32.26 0 0 0 483.86 32.26" fill="#e2e6e9"/><rect x="483.86" y="32.26" width="32.26" height="32.26" fill="#56707e"/><path d="M 483.86 64.52 A 32.26 32.26 0 0 1  516.12 32.26 L 483.86 64.52 A 32.26 32.26 0 0 0 516.12 32.26" fill="#a1b0b7"/><rect x="516.11" y="0" width="64.51" height="64.51" fill="#6e8490"/><path d="M 516.11 0 A 64.51 64.51 0 0 1 580.62 64.51 L 516.11 64.51" fill="#f8e7bc"/><rect x="580.63" y="0" width="64.51" height="64.51" fill="#93a3ac"/><path d="M 580.63 64.51 A 64.51 64.51 0 0 1  645.14 0 L 580.63 64.51 A 64.51 64.51 0 0 0 645.14 0" fill="#fefdf8"/><rect x="645.1428571428572" y="0" width="64.51428571428572" height="64.51428571428572" fill="#ffffff"/><rect x="645.14" y="0" width="32.26" height="32.26" fill="#f8e8bf"/><path d="M 645.14 32.26 A 32.26 32.26 0 0 1  677.4 0 L 677.4 32.26" fill="#faedcd"/><rect x="677.4" y="0" width="32.26" height="32.26" fill="#f0cd75"/><path d="M 677.4 0 A 32.26 32.26 0 0 1 709.66 32.26 L 677.4 32.26" fill="#b1bdc3"/><rect x="645.14" y="32.26" width="32.26" height="32.26" fill="#9aaab2"/><path d="M 645.14 32.26 A 32.26 32.26 0 0 1 677.4 64.52 L 645.14 64.52" fill="#dadfe2"/><rect x="677.4" y="32.26" width="32.26" height="32.26" fill="#f6e0a8"/><path d="M 677.4 64.52 A 32.26 32.26 0 0 1  709.66 32.26 L 677.4 64.52 A 32.26 32.26 0 0 0 709.66 32.26" fill="#f1ce76"/><rect x="709.657142857143" y="0" width="64.51428571428572" height="64.51428571428572" fill="#ffffff"/><rect x="709.66" y="0" width="32.26" height="32.26" fill="#f7e4b5"/><path d="M 709.66 32.26 A 32.26 32.26 0 0 1  741.92 0 L 741.92 32.26" fill="#2a4a5c"/><rect x="741.91" y="0" width="32.26" height="32.26" fill="#d7dde0"/><path d="M 741.91 32.26 A 32.26 32.26 0 0 1  774.17 0 L 774.17 32.26" fill="#fcf5e3"/><rect x="709.66" y="32.26" width="32.26" height="32.26" fill="#f6e1ac"/><path d="M 709.66 64.52 A 32.26 32.26 0 0 1  741.92 32.26 L 741.92 64.52" fill="#a4b2b9"/><rect x="741.91" y="32.26" width="32.26" height="32.26" fill="#3d5b6b"/><path d="M 741.91 32.26 A 32.26 32.26 0 0 1  774.17 64.52 L 741.91 32.26 A 32.26 32.26 0 0 0 774.17 64.52" fill="#fdf7e9"/><rect x="774.1714285714286" y="0" width="64.51428571428572" height="64.51428571428572" fill="#ffffff"/><rect x="774.17" y="0" width="32.26" height="32.26" fill="#2a4a5c"/><path d="M 774.17 0 A 32.26 32.26 0 0 0 806.43 32.26 L 806.43 0" fill="#f0ce75"/><rect x="806.43" y="0" width="32.26" height="32.26" fill="#fdf7e9"/><path d="M 806.43 0 A 32.26 32.26 0 0 0 838.6899999999999 32.26 L 838.6899999999999 0" fill="#f9eac5"/><rect x="774.17" y="32.26" width="32.26" height="32.26" fill="#f1d07d"/><path d="M 774.17 64.52 A 32.26 32.26 0 0 1  806.43 32.26 L 774.17 64.52 A 32.26 32.26 0 0 0 806.43 32.26" fill="#f8e8c0"/><rect x="806.43" y="32.26" width="32.26" height="32.26" fill="#708692"/><path d="M 806.43 32.26 A 32.26 32.26 0 0 0 838.6899999999999 64.52 L 838.6899999999999 32.26" fill="#f7e4b3"/><rect x="0" y="64.51428571428572" width="64.51428571428572" height="64.51428571428572" fill="#ffffff"/><rect x="0" y="64.51" width="32.26" height="32.26" fill="#f9e9c2"/><path d="M 0 96.77000000000001 A 32.26 32.26 0 0 1  32.26 64.51 L 0 96.77000000000001 A 32.26 32.26 0 0 0 32.26 64.51" fill="#3e5b6b"/><rect x="32.26" y="64.51" width="32.26" height="32.26" fill="#f1d07b"/><path d="M 32.26 96.77000000000001 A 32.26 32.26 0 0 0 64.52 64.51 L 32.26 64.51" fill="#f9eac4"/><rect x="0" y="96.77" width="32.26" height="32.26" fill="#f5db9c"/><path d="M 0 129.03 A 32.26 32.26 0 0 1  32.26 96.77 L 0 129.03 A 32.26 32.26 0 0 0 32.26 96.77" fill="#556f7d"/><rect x="32.26" y="96.77" width="32.26" height="32.26" fill="#d1d8dc"/><path d="M 32.26 96.77 A 32.26 32.26 0 0 0 64.52 129.03 L 64.52 96.77" fill="#fbf3dd"/><rect x="64.51428571428572" y="64.51428571428572" width="64.51428571428572" height="64.51428571428572" fill="#ffffff"/><rect x="64.51" y="64.51" width="32.26" height="32.26" fill="#f9ecca"/><path d="M 64.51 96.77000000000001 A 32.26 32.26 0 0 1  96.77000000000001 64.51 L 96.77000000000001 96.77000000000001" fill="#516c7a"/><rect x="96.77" y="64.51" width="32.26" height="32.26" fill="#2a4a5c"/><path d="M 96.77 64.51 A 32.26 32.26 0 0 0 129.03 96.77000000000001 L 129.03 64.51" fill="#edf0f1"/><rect x="64.51" y="96.77" width="32.26" height="32.26" fill="#f4d893"/><path d="M 64.51 96.77 A 32.26 32.26 0 0 1 96.77000000000001 129.03 L 64.51 129.03" fill="#fbf0d6"/><rect x="96.77" y="96.77" width="32.26" height="32.26" fill="#f0cd75"/><path d="M 96.77 96.77 A 32.26 32.26 0 0 1 129.03 129.03 L 96.77 129.03" fill="#c4cdd2"/><rect x="129.03" y="64.51" width="64.51" height="64.51" fill="#f4d995"/><path d="M 129.03 129.02 A 64.51 64.51 0 0 0 193.54000000000002 64.51 L 129.03 64.51" fill="#f3d78f"/><rect x="193.54" y="64.51" width="64.51" height="64.51" fill="#f8e8c0"/><path d="M 193.54 129.02 A 64.51 64.51 0 0 1  258.05 64.51 L 193.54 129.02 A 64.51 64.51 0 0 0 258.05 64.51" fill="#f9ebc7"/><rect x="258.0571428571429" y="64.51428571428572" width="64.51428571428572" height="64.51428571428572" fill="#ffffff"/><rect x="258.06" y="64.51" width="32.26" height="32.26" fill="#faedcc"/><path d="M 258.06 64.51 A 32.26 32.26 0 0 1 290.32 96.77000000000001 L 258.06 96.77000000000001" fill="#476372"/><rect x="290.31" y="64.51" width="32.26" height="32.26" fill="#fbfcfc"/><path d="M 290.31 64.51 A 32.26 32.26 0 0 1  322.57 96.77000000000001 L 290.31 64.51 A 32.26 32.26 0 0 0 322.57 96.77000000000001" fill="#f7e3b0"/><rect x="258.06" y="96.77" width="32.26" height="32.26" fill="#627a87"/><path d="M 258.06 96.77 A 32.26 32.26 0 0 1  290.32 129.03 L 258.06 96.77 A 32.26 32.26 0 0 0 290.32 129.03" fill="#e8ecee"/><rect x="290.31" y="96.77" width="32.26" height="32.26" fill="#f8e7bc"/><path d="M 290.31 129.03 A 32.26 32.26 0 0 1  322.57 96.77 L 290.31 129.03 A 32.26 32.26 0 0 0 322.57 96.77" fill="#5b7482"/><rect x="322.5714285714286" y="64.51428571428572" width="64.51428571428572" height="64.51428571428572" fill="#ffffff"/><rect x="322.57" y="64.51" width="32.26" height="32.26" fill="#27485a"/><path d="M 322.57 64.51 A 32.26 32.26 0 0 1  354.83 96.77000000000001 L 322.57 64.51 A 32.26 32.26 0 0 0 354.83 96.77000000000001" fill="#f4da99"/><rect x="354.83" y="64.51" width="32.26" height="32.26" fill="#fdf7ea"/><path d="M 354.83 64.51 A 32.26 32.26 0 0 1 387.09 96.77000000000001 L 354.83 96.77000000000001" fill="#f0cd73"/><rect x="322.57" y="96.77" width="32.26" height="32.26" fill="#f1ce77"/><path d="M 322.57 129.03 A 32.26 32.26 0 0 1  354.83 96.77 L 354.83 129.03" fill="#6a808d"/><rect x="354.83" y="96.77" width="32.26" height="32.26" fill="#708692"/><path d="M 354.83 129.03 A 32.26 32.26 0 0 1  387.09 96.77 L 354.83 129.03 A 32.26 32.26 0 0 0 387.09 96.77" fill="#f4d996"/><rect x="387.09" y="64.51" width="64.51" height="64.51" fill="#fcfdfd"/><path d="M 387.09 64.51 A 64.51 64.51 0 0 0 451.59999999999997 129.02 L 451.59999999999997 64.51" fill="#f9e9c3"/><rect x="451.6" y="64.51" width="64.51" height="64.51" fill="#8d9ea8"/><path d="M 451.6 64.51 A 64.51 64.51 0 0 0 516.11 129.02 L 516.11 64.51" fill="#fbf0d5"/><rect x="516.1142857142858" y="64.51428571428572" width="64.51428571428572" height="64.51428571428572" fill="#ffffff"/><rect x="516.11" y="64.51" width="32.26" height="32.26" fill="#cdd5d9"/><path d="M 516.11 64.51 A 32.26 32.26 0 0 0 548.37 96.77000000000001 L 548.37 64.51" fill="#fdf8ec"/><rect x="548.37" y="64.51" width="32.26" height="32.26" fill="#9baab3"/><path d="M 548.37 64.51 A 32.26 32.26 0 0 1  580.63 96.77000000000001 L 548.37 64.51 A 32.26 32.26 0 0 0 580.63 96.77000000000001" fill="#f2d180"/><rect x="516.11" y="96.77" width="32.26" height="32.26" fill="#627a87"/><path d="M 516.11 96.77 A 32.26 32.26 0 0 1 548.37 129.03 L 516.11 129.03" fill="#6e8490"/><rect x="548.37" y="96.77" width="32.26" height="32.26" fill="#f6e0a8"/><path d="M 548.37 96.77 A 32.26 32.26 0 0 1  580.63 129.03 L 548.37 96.77 A 32.26 32.26 0 0 0 580.63 129.03" fill="#f4da97"/><rect x="580.63" y="64.51" width="64.51" height="64.51" fill="#365566"/><path d="M 580.63 64.51 A 64.51 64.51 0 0 1  645.14 129.02 L 580.63 64.51 A 64.51 64.51 0 0 0 645.14 129.02" fill="#b5c0c6"/><rect x="645.14" y="64.51" width="64.51" height="64.51" fill="#fcf4e1"/><path d="M 645.14 129.02 A 64.51 64.51 0 0 1  709.65 64.51 L 709.65 129.02" fill="#9dacb4"/><rect x="709.66" y="64.51" width="64.51" height="64.51" fill="#f5dea3"/><path d="M 709.66 129.02 A 64.51 64.51 0 0 0 774.17 64.51 L 709.66 64.51" fill="#f4d893"/><rect x="774.1714285714286" y="64.51428571428572" width="64.51428571428572" height="64.51428571428572" fill="#ffffff"/><rect x="774.17" y="64.51" width="32.26" height="32.26" fill="#f9eac4"/><path d="M 774.17 64.51 A 32.26 32.26 0 0 1  806.43 96.77000000000001 L 774.17 64.51 A 32.26 32.26 0 0 0 806.43 96.77000000000001" fill="#fdf8ec"/><rect x="806.43" y="64.51" width="32.26" height="32.26" fill="#f9ecca"/><path d="M 806.43 96.77000000000001 A 32.26 32.26 0 0 1  838.6899999999999 64.51 L 838.6899999999999 96.77000000000001" fill="#fbfcfc"/><rect x="774.17" y="96.77" width="32.26" height="32.26" fill="#9eadb5"/><path d="M 774.17 129.03 A 32.26 32.26 0 0 1  806.43 96.77 L 774.17 129.03 A 32.26 32.26 0 0 0 806.43 96.77" fill="#9eadb5"/><rect x="806.43" y="96.77" width="32.26" height="32.26" fill="#f5dda1"/><path d="M 806.43 129.03 A 32.26 32.26 0 0 1  838.6899999999999 96.77 L 838.6899999999999 129.03" fill="#c9d2d6"/><rect x="0" y="129.03" width="64.51" height="64.51" fill="#faeed1"/><path d="M 0 193.54000000000002 A 64.51 64.51 0 0 1  64.51 129.03 L 64.51 193.54000000000002" fill="#f1d07d"/><rect x="64.51" y="129.03" width="64.51" height="64.51" fill="#a1afb7"/><path d="M 64.51 129.03 A 64.51 64.51 0 0 0 129.02 193.54000000000002 L 129.02 129.03" fill="#fcf6e5"/><rect x="129.03" y="129.03" width="64.51" height="64.51" fill="#ced6da"/><path d="M 129.03 129.03 A 64.51 64.51 0 0 1 193.54000000000002 193.54000000000002 L 129.03 193.54000000000002" fill="#bdc7cc"/><rect x="193.54285714285714" y="129.02857142857144" width="64.51428571428572" height="64.51428571428572" fill="#ffffff"/><rect x="193.54" y="129.03" width="32.26" height="32.26" fill="#536d7c"/><path d="M 193.54 129.03 A 32.26 32.26 0 0 0 225.79999999999998 161.29 L 225.79999999999998 129.03" fill="#f2d384"/><rect x="225.8" y="129.03" width="32.26" height="32.26" fill="#2d4d5e"/><path d="M 225.8 129.03 A 32.26 32.26 0 0 1  258.06 161.29 L 225.8 129.03 A 32.26 32.26 0 0 0 258.06 161.29" fill="#f8e9c1"/><rect x="193.54" y="161.29" width="32.26" height="32.26" fill="#fcf6e6"/><path d="M 193.54 161.29 A 32.26 32.26 0 0 1  225.79999999999998 193.54999999999998 L 193.54 161.29 A 32.26 32.26 0 0 0 225.79999999999998 193.54999999999998" fill="#f0cd75"/><rect x="225.8" y="161.29" width="32.26" height="32.26" fill="#516c7a"/><path d="M 225.8 161.29 A 32.26 32.26 0 0 1  258.06 193.54999999999998 L 225.8 161.29 A 32.26 32.26 0 0 0 258.06 193.54999999999998" fill="#f5dfa5"/><rect x="258.06" y="129.03" width="64.51" height="64.51" fill="#375666"/><path d="M 258.06 129.03 A 64.51 64.51 0 0 0 322.57 193.54000000000002 L 322.57 129.03" fill="#f7e5b5"/><rect x="322.5714285714286" y="129.02857142857144" width="64.51428571428572" height="64.51428571428572" fill="#ffffff"/><rect x="322.57" y="129.03" width="32.26" height="32.26" fill="#f3d790"/><path d="M 322.57 129.03 A 32.26 32.26 0 0 1 354.83 161.29 L 322.57 161.29" fill="#dbe0e3"/><rect x="354.83" y="129.03" width="32.26" height="32.26" fill="#748994"/><path d="M 354.83 161.29 A 32.26 32.26 0 0 1  387.09 129.03 L 387.09 161.29" fill="#cbd3d7"/><rect x="322.57" y="161.29" width="32.26" height="32.26" fill="#b1bdc4"/><path d="M 322.57 161.29 A 32.26 32.26 0 0 1  354.83 193.54999999999998 L 322.57 161.29 A 32.26 32.26 0 0 0 354.83 193.54999999999998" fill="#f4d996"/><rect x="354.83" y="161.29" width="32.26" height="32.26" fill="#fdfefe"/><path d="M 354.83 161.29 A 32.26 32.26 0 0 0 387.09 193.54999999999998 L 387.09 161.29" fill="#fefbf4"/><rect x="387.0857142857143" y="129.02857142857144" width="64.51428571428572" height="64.51428571428572" fill="#ffffff"/><rect x="387.09" y="129.03" width="32.26" height="32.26" fill="#f2d180"/><path d="M 387.09 129.03 A 32.26 32.26 0 0 0 419.34999999999997 161.29 L 419.34999999999997 129.03" fill="#375666"/><rect x="419.34" y="129.03" width="32.26" height="32.26" fill="#fffefc"/><path d="M 419.34 161.29 A 32.26 32.26 0 0 1  451.59999999999997 129.03 L 451.59999999999997 161.29" fill="#faeecf"/><rect x="387.09" y="161.29" width="32.26" height="32.26" fill="#fcf3de"/><path d="M 387.09 193.54999999999998 A 32.26 32.26 0 0 1  419.34999999999997 161.29 L 419.34999999999997 193.54999999999998" fill="#3c5969"/><rect x="419.34" y="161.29" width="32.26" height="32.26" fill="#768b96"/><path d="M 419.34 161.29 A 32.26 32.26 0 0 1  451.59999999999997 193.54999999999998 L 419.34 161.29 A 32.26 32.26 0 0 0 451.59999999999997 193.54999999999998" fill="#fafbfb"/><rect x="451.6" y="129.02857142857144" width="64.51428571428572" height="64.51428571428572" fill="#ffffff"/><rect x="451.6" y="129.03" width="32.26" height="32.26" fill="#fefefe"/><path d="M 451.6 161.29 A 32.26 32.26 0 0 1  483.86 129.03 L 451.6 161.29 A 32.26 32.26 0 0 0 483.86 129.03" fill="#98a8b0"/><rect x="483.86" y="129.03" width="32.26" height="32.26" fill="#f7e3b0"/><path d="M 483.86 129.03 A 32.26 32.26 0 0 0 516.12 161.29 L 516.12 129.03" fill="#315061"/><rect x="451.6" y="161.29" width="32.26" height="32.26" fill="#c5ced3"/><path d="M 451.6 193.54999999999998 A 32.26 32.26 0 0 1  483.86 161.29 L 483.86 193.54999999999998" fill="#a8b5bd"/><rect x="483.86" y="161.29" width="32.26" height="32.26" fill="#fffefb"/><path d="M 483.86 161.29 A 32.26 32.26 0 0 0 516.12 193.54999999999998 L 516.12 161.29" fill="#f9ecc9"/><rect x="516.1142857142858" y="129.02857142857144" width="64.51428571428572" height="64.51428571428572" fill="#ffffff"/><rect x="516.11" y="129.03" width="32.26" height="32.26" fill="#f1cf78"/><path d="M 516.11 161.29 A 32.26 32.26 0 0 0 548.37 129.03 L 516.11 129.03" fill="#f2d282"/><rect x="548.37" y="129.03" width="32.26" height="32.26" fill="#f2d486"/><path d="M 548.37 161.29 A 32.26 32.26 0 0 1  580.63 129.03 L 548.37 161.29 A 32.26 32.26 0 0 0 580.63 129.03" fill="#e3e8ea"/><rect x="516.11" y="161.29" width="32.26" height="32.26" fill="#fefdf9"/><path d="M 516.11 193.54999999999998 A 32.26 32.26 0 0 1  548.37 161.29 L 548.37 193.54999999999998" fill="#f2d386"/><rect x="548.37" y="161.29" width="32.26" height="32.26" fill="#eef1f2"/><path d="M 548.37 161.29 A 32.26 32.26 0 0 1  580.63 193.54999999999998 L 548.37 161.29 A 32.26 32.26 0 0 0 580.63 193.54999999999998" fill="#f9eac4"/><rect x="580.63" y="129.03" width="64.51" height="64.51" fill="#375566"/><path d="M 580.63 193.54000000000002 A 64.51 64.51 0 0 1  645.14 129.03 L 645.14 193.54000000000002" fill="#bcc6cc"/><rect x="645.14" y="129.03" width="64.51" height="64.51" fill="#e7ebed"/><path d="M 645.14 193.54000000000002 A 64.51 64.51 0 0 1  709.65 129.03 L 645.14 193.54000000000002 A 64.51 64.51 0 0 0 709.65 129.03" fill="#fdf8eb"/><rect x="709.66" y="129.03" width="64.51" height="64.51" fill="#f7e5b8"/><path d="M 709.66 129.03 A 64.51 64.51 0 0 1 774.17 193.54000000000002 L 709.66 193.54000000000002" fill="#f3d68d"/><rect x="774.1714285714286" y="129.02857142857144" width="64.51428571428572" height="64.51428571428572" fill="#ffffff"/><rect x="774.17" y="129.03" width="32.26" height="32.26" fill="#7d909b"/><path d="M 774.17 129.03 A 32.26 32.26 0 0 0 806.43 161.29 L 806.43 129.03" fill="#f2d180"/><rect x="806.43" y="129.03" width="32.26" height="32.26" fill="#fdfaf1"/><path d="M 806.43 161.29 A 32.26 32.26 0 0 1  838.6899999999999 129.03 L 838.6899999999999 161.29" fill="#2f4f60"/><rect x="774.17" y="161.29" width="32.26" height="32.26" fill="#677e8b"/><path d="M 774.17 193.54999999999998 A 32.26 32.26 0 0 1  806.43 161.29 L 774.17 193.54999999999998 A 32.26 32.26 0 0 0 806.43 161.29" fill="#f4db9b"/><rect x="806.43" y="161.29" width="32.26" height="32.26" fill="#4e6977"/><path d="M 806.43 193.54999999999998 A 32.26 32.26 0 0 0 838.6899999999999 161.29 L 806.43 161.29" fill="#446170"/><rect x="0" y="193.54" width="64.51" height="64.51" fill="#f6e2ae"/><path d="M 0 193.54 A 64.51 64.51 0 0 1 64.51 258.05 L 0 258.05" fill="#fcf4e1"/><rect x="64.51428571428572" y="193.54285714285714" width="64.51428571428572" height="64.51428571428572" fill="#ffffff"/><rect x="64.51" y="193.54" width="32.26" height="32.26" fill="#4a6675"/><path d="M 64.51 193.54 A 32.26 32.26 0 0 1  96.77000000000001 225.79999999999998 L 64.51 193.54 A 32.26 32.26 0 0 0 96.77000000000001 225.79999999999998" fill="#f1d17e"/><rect x="96.77" y="193.54" width="32.26" height="32.26" fill="#fdf8eb"/><path d="M 96.77 193.54 A 32.26 32.26 0 0 1 129.03 225.79999999999998 L 96.77 225.79999999999998" fill="#f9ecca"/><rect x="64.51" y="225.8" width="32.26" height="32.26" fill="#c4cdd2"/><path d="M 64.51 258.06 A 32.26 32.26 0 0 0 96.77000000000001 225.8 L 64.51 225.8" fill="#fdf8ed"/><rect x="96.77" y="225.8" width="32.26" height="32.26" fill="#506b79"/><path d="M 96.77 258.06 A 32.26 32.26 0 0 0 129.03 225.8 L 96.77 225.8" fill="#fdf7ea"/><rect x="129.03" y="193.54" width="64.51" height="64.51" fill="#fcf5e2"/><path d="M 129.03 193.54 A 64.51 64.51 0 0 1  193.54000000000002 258.05 L 129.03 193.54 A 64.51 64.51 0 0 0 193.54000000000002 258.05" fill="#f5dea3"/><rect x="193.54" y="193.54" width="64.51" height="64.51" fill="#f8e6ba"/><path d="M 193.54 258.05 A 64.51 64.51 0 0 1  258.05 193.54 L 193.54 258.05 A 64.51 64.51 0 0 0 258.05 193.54" fill="#faedcd"/><rect x="258.0571428571429" y="193.54285714285714" width="64.51428571428572" height="64.51428571428572" fill="#ffffff"/><rect x="258.06" y="193.54" width="32.26" height="32.26" fill="#f2d280"/><path d="M 258.06 193.54 A 32.26 32.26 0 0 0 290.32 225.79999999999998 L 290.32 193.54" fill="#fefaf2"/><rect x="290.31" y="193.54" width="32.26" height="32.26" fill="#dee3e6"/><path d="M 290.31 193.54 A 32.26 32.26 0 0 1  322.57 225.79999999999998 L 290.31 193.54 A 32.26 32.26 0 0 0 322.57 225.79999999999998" fill="#7e919c"/><rect x="258.06" y="225.8" width="32.26" height="32.26" fill="#405d6d"/><path d="M 258.06 225.8 A 32.26 32.26 0 0 0 290.32 258.06 L 290.32 225.8" fill="#abb7be"/><rect x="290.31" y="225.8" width="32.26" height="32.26" fill="#a8b6bd"/><path d="M 290.31 258.06 A 32.26 32.26 0 0 1  322.57 225.8 L 322.57 258.06" fill="#b0bcc2"/><rect x="322.57" y="193.54" width="64.51" height="64.51" fill="#aab7be"/><path d="M 322.57 193.54 A 64.51 64.51 0 0 0 387.08 258.05 L 387.08 193.54" fill="#f4d995"/><rect x="387.0857142857143" y="193.54285714285714" width="64.51428571428572" height="64.51428571428572" fill="#ffffff"/><rect x="387.09" y="193.54" width="32.26" height="32.26" fill="#b4c0c6"/><path d="M 387.09 225.79999999999998 A 32.26 32.26 0 0 1  419.34999999999997 193.54 L 419.34999999999997 225.79999999999998" fill="#f2d385"/><rect x="419.34" y="193.54" width="32.26" height="32.26" fill="#516b7a"/><path d="M 419.34 193.54 A 32.26 32.26 0 0 1  451.59999999999997 225.79999999999998 L 419.34 193.54 A 32.26 32.26 0 0 0 451.59999999999997 225.79999999999998" fill="#f5dda2"/><rect x="387.09" y="225.8" width="32.26" height="32.26" fill="#fefcf8"/><path d="M 387.09 225.8 A 32.26 32.26 0 0 1 419.34999999999997 258.06 L 387.09 258.06" fill="#f7e5b6"/><rect x="419.34" y="225.8" width="32.26" height="32.26" fill="#b9c4ca"/><path d="M 419.34 225.8 A 32.26 32.26 0 0 1 451.59999999999997 258.06 L 419.34 258.06" fill="#8497a1"/><rect x="451.6" y="193.54" width="64.51" height="64.51" fill="#fbf1d9"/><path d="M 451.6 193.54 A 64.51 64.51 0 0 0 516.11 258.05 L 516.11 193.54" fill="#fcf5e3"/><rect x="516.1142857142858" y="193.54285714285714" width="64.51428571428572" height="64.51428571428572" fill="#ffffff"/><rect x="516.11" y="193.54" width="32.26" height="32.26" fill="#f9ebc8"/><path d="M 516.11 193.54 A 32.26 32.26 0 0 1 548.37 225.79999999999998 L 516.11 225.79999999999998" fill="#566f7d"/><rect x="548.37" y="193.54" width="32.26" height="32.26" fill="#fcf4e1"/><path d="M 548.37 193.54 A 32.26 32.26 0 0 0 580.63 225.79999999999998 L 580.63 193.54" fill="#8c9da7"/><rect x="516.11" y="225.8" width="32.26" height="32.26" fill="#f8e7bd"/><path d="M 516.11 225.8 A 32.26 32.26 0 0 0 548.37 258.06 L 548.37 225.8" fill="#edf0f1"/><rect x="548.37" y="225.8" width="32.26" height="32.26" fill="#f5dda1"/><path d="M 548.37 225.8 A 32.26 32.26 0 0 0 580.63 258.06 L 580.63 225.8" fill="#fdf7e7"/><rect x="580.6285714285715" y="193.54285714285714" width="64.51428571428572" height="64.51428571428572" fill="#ffffff"/><rect x="580.63" y="193.54" width="32.26" height="32.26" fill="#f1cf7a"/><path d="M 580.63 193.54 A 32.26 32.26 0 0 0 612.89 225.79999999999998 L 612.89 193.54" fill="#f7e3b0"/><rect x="612.89" y="193.54" width="32.26" height="32.26" fill="#e9ecee"/><path d="M 612.89 193.54 A 32.26 32.26 0 0 1  645.15 225.79999999999998 L 612.89 193.54 A 32.26 32.26 0 0 0 645.15 225.79999999999998" fill="#f8e8be"/><rect x="580.63" y="225.8" width="32.26" height="32.26" fill="#a7b5bc"/><path d="M 580.63 225.8 A 32.26 32.26 0 0 1 612.89 258.06 L 580.63 258.06" fill="#f6e1ab"/><rect x="612.89" y="225.8" width="32.26" height="32.26" fill="#f7e3b2"/><path d="M 612.89 258.06 A 32.26 32.26 0 0 1  645.15 225.8 L 612.89 258.06 A 32.26 32.26 0 0 0 645.15 225.8" fill="#f7e5b7"/><rect x="645.1428571428572" y="193.54285714285714" width="64.51428571428572" height="64.51428571428572" fill="#ffffff"/><rect x="645.14" y="193.54" width="32.26" height="32.26" fill="#9dacb4"/><path d="M 645.14 225.79999999999998 A 32.26 32.26 0 0 1  677.4 193.54 L 677.4 225.79999999999998" fill="#fcfdfd"/><rect x="677.4" y="193.54" width="32.26" height="32.26" fill="#738994"/><path d="M 677.4 193.54 A 32.26 32.26 0 0 0 709.66 225.79999999999998 L 709.66 193.54" fill="#f2d180"/><rect x="645.14" y="225.8" width="32.26" height="32.26" fill="#27485a"/><path d="M 645.14 258.06 A 32.26 32.26 0 0 0 677.4 225.8 L 645.14 225.8" fill="#f4d994"/><rect x="677.4" y="225.8" width="32.26" height="32.26" fill="#355464"/><path d="M 677.4 225.8 A 32.26 32.26 0 0 0 709.66 258.06 L 709.66 225.8" fill="#abb7be"/><rect x="709.66" y="193.54" width="64.51" height="64.51" fill="#fffefc"/><path d="M 709.66 193.54 A 64.51 64.51 0 0 1  774.17 258.05 L 709.66 193.54 A 64.51 64.51 0 0 0 774.17 258.05" fill="#798d98"/><rect x="774.1714285714286" y="193.54285714285714" width="64.51428571428572" height="64.51428571428572" fill="#ffffff"/><rect x="774.17" y="193.54" width="32.26" height="32.26" fill="#fefdf9"/><path d="M 774.17 225.79999999999998 A 32.26 32.26 0 0 1  806.43 193.54 L 774.17 225.79999999999998 A 32.26 32.26 0 0 0 806.43 193.54" fill="#b3bfc5"/><rect x="806.43" y="193.54" width="32.26" height="32.26" fill="#6f8591"/><path d="M 806.43 193.54 A 32.26 32.26 0 0 0 838.6899999999999 225.79999999999998 L 838.6899999999999 193.54" fill="#627a87"/><rect x="774.17" y="225.8" width="32.26" height="32.26" fill="#f4da98"/><path d="M 774.17 258.06 A 32.26 32.26 0 0 1  806.43 225.8 L 806.43 258.06" fill="#f9ebc8"/><rect x="806.43" y="225.8" width="32.26" height="32.26" fill="#91a2ab"/><path d="M 806.43 258.06 A 32.26 32.26 0 0 1  838.6899999999999 225.8 L 806.43 258.06 A 32.26 32.26 0 0 0 838.6899999999999 225.8" fill="#8799a3"/><rect x="0" y="258.0571428571429" width="64.51428571428572" height="64.51428571428572" fill="#ffffff"/><rect x="0" y="258.06" width="32.26" height="32.26" fill="#edf0f1"/><path d="M 0 290.32 A 32.26 32.26 0 0 1  32.26 258.06 L 0 290.32 A 32.26 32.26 0 0 0 32.26 258.06" fill="#7c909b"/><rect x="32.26" y="258.06" width="32.26" height="32.26" fill="#3a5868"/><path d="M 32.26 258.06 A 32.26 32.26 0 0 1  64.52 290.32 L 32.26 258.06 A 32.26 32.26 0 0 0 64.52 290.32" fill="#d6dcdf"/><rect x="0" y="290.31" width="32.26" height="32.26" fill="#b1bdc3"/><path d="M 0 322.57 A 32.26 32.26 0 0 1  32.26 290.31 L 32.26 322.57" fill="#3a5868"/><rect x="32.26" y="290.31" width="32.26" height="32.26" fill="#f4d995"/><path d="M 32.26 322.57 A 32.26 32.26 0 0 1  64.52 290.31 L 32.26 322.57 A 32.26 32.26 0 0 0 64.52 290.31" fill="#f4da97"/><rect x="64.51" y="258.06" width="64.51" height="64.51" fill="#fdf8eb"/><path d="M 64.51 258.06 A 64.51 64.51 0 0 1 129.02 322.57 L 64.51 322.57" fill="#fbf0d6"/><rect x="129.03" y="258.06" width="64.51" height="64.51" fill="#647b88"/><path d="M 129.03 322.57 A 64.51 64.51 0 0 1  193.54000000000002 258.06 L 193.54000000000002 322.57" fill="#f9ebc8"/><rect x="193.54" y="258.06" width="64.51" height="64.51" fill="#f8e9c1"/><path d="M 193.54 322.57 A 64.51 64.51 0 0 0 258.05 258.06 L 193.54 258.06" fill="#f6e1ab"/><rect x="258.06" y="258.06" width="64.51" height="64.51" fill="#faedce"/><path d="M 258.06 258.06 A 64.51 64.51 0 0 1 322.57 322.57 L 258.06 322.57" fill="#b1bdc3"/><rect x="322.57" y="258.06" width="64.51" height="64.51" fill="#f4d995"/><path d="M 322.57 322.57 A 64.51 64.51 0 0 0 387.08 258.06 L 322.57 258.06" fill="#f5dc9d"/><rect x="387.09" y="258.06" width="64.51" height="64.51" fill="#81949e"/><path d="M 387.09 322.57 A 64.51 64.51 0 0 0 451.59999999999997 258.06 L 387.09 258.06" fill="#f1ce78"/><rect x="451.6" y="258.06" width="64.51" height="64.51" fill="#faefd4"/><path d="M 451.6 322.57 A 64.51 64.51 0 0 1  516.11 258.06 L 451.6 322.57 A 64.51 64.51 0 0 0 516.11 258.06" fill="#d6dde0"/><rect x="516.11" y="258.06" width="64.51" height="64.51" fill="#faefd2"/><path d="M 516.11 322.57 A 64.51 64.51 0 0 1  580.62 258.06 L 516.11 322.57 A 64.51 64.51 0 0 0 580.62 258.06" fill="#798d98"/><rect x="580.63" y="258.06" width="64.51" height="64.51" fill="#fcf6e6"/><path d="M 580.63 258.06 A 64.51 64.51 0 0 1 645.14 322.57 L 580.63 322.57" fill="#4a6675"/><rect x="645.14" y="258.06" width="64.51" height="64.51" fill="#8497a1"/><path d="M 645.14 322.57 A 64.51 64.51 0 0 1  709.65 258.06 L 709.65 322.57" fill="#c1cacf"/><rect x="709.657142857143" y="258.0571428571429" width="64.51428571428572" height="64.51428571428572" fill="#ffffff"/><rect x="709.66" y="258.06" width="32.26" height="32.26" fill="#f9ecca"/><path d="M 709.66 258.06 A 32.26 32.26 0 0 0 741.92 290.32 L 741.92 258.06" fill="#677e8b"/><rect x="741.91" y="258.06" width="32.26" height="32.26" fill="#f9ebc7"/><path d="M 741.91 258.06 A 32.26 32.26 0 0 1 774.17 290.32 L 741.91 290.32" fill="#f1d07b"/><rect x="709.66" y="290.31" width="32.26" height="32.26" fill="#f5dda0"/><path d="M 709.66 322.57 A 32.26 32.26 0 0 0 741.92 290.31 L 709.66 290.31" fill="#fdf8ea"/><rect x="741.91" y="290.31" width="32.26" height="32.26" fill="#b0bcc3"/><path d="M 741.91 322.57 A 32.26 32.26 0 0 1  774.17 290.31 L 741.91 322.57 A 32.26 32.26 0 0 0 774.17 290.31" fill="#f9ecca"/><rect x="774.1714285714286" y="258.0571428571429" width="64.51428571428572" height="64.51428571428572" fill="#ffffff"/><rect x="774.17" y="258.06" width="32.26" height="32.26" fill="#f8e9c1"/><path d="M 774.17 258.06 A 32.26 32.26 0 0 0 806.43 290.32 L 806.43 258.06" fill="#f4d996"/><rect x="806.43" y="258.06" width="32.26" height="32.26" fill="#6b828e"/><path d="M 806.43 290.32 A 32.26 32.26 0 0 0 838.6899999999999 258.06 L 806.43 258.06" fill="#3a5869"/><rect x="774.17" y="290.31" width="32.26" height="32.26" fill="#fefdf9"/><path d="M 774.17 290.31 A 32.26 32.26 0 0 0 806.43 322.57 L 806.43 290.31" fill="#b8c3c9"/><rect x="806.43" y="290.31" width="32.26" height="32.26" fill="#375566"/><path d="M 806.43 290.31 A 32.26 32.26 0 0 1  838.6899999999999 322.57 L 806.43 290.31 A 32.26 32.26 0 0 0 838.6899999999999 322.57" fill="#365566"/><rect x="0" y="322.5714285714286" width="64.51428571428572" height="64.51428571428572" fill="#ffffff"/><rect x="0" y="322.57" width="32.26" height="32.26" fill="#f3d68e"/><path d="M 0 322.57 A 32.26 32.26 0 0 1  32.26 354.83 L 0 322.57 A 32.26 32.26 0 0 0 32.26 354.83" fill="#f5dc9e"/><rect x="32.26" y="322.57" width="32.26" height="32.26" fill="#c7cfd4"/><path d="M 32.26 354.83 A 32.26 32.26 0 0 0 64.52 322.57 L 32.26 322.57" fill="#d2d9dd"/><rect x="0" y="354.83" width="32.26" height="32.26" fill="#adbac0"/><path d="M 0 354.83 A 32.26 32.26 0 0 1  32.26 387.09 L 0 354.83 A 32.26 32.26 0 0 0 32.26 387.09" fill="#f5dda1"/><rect x="32.26" y="354.83" width="32.26" height="32.26" fill="#fefefe"/><path d="M 32.26 387.09 A 32.26 32.26 0 0 1  64.52 354.83 L 32.26 387.09 A 32.26 32.26 0 0 0 64.52 354.83" fill="#c9d1d6"/><rect x="64.51428571428572" y="322.5714285714286" width="64.51428571428572" height="64.51428571428572" fill="#ffffff"/><rect x="64.51" y="322.57" width="32.26" height="32.26" fill="#f2d281"/><path d="M 64.51 322.57 A 32.26 32.26 0 0 0 96.77000000000001 354.83 L 96.77000000000001 322.57" fill="#ccd4d8"/><rect x="96.77" y="322.57" width="32.26" height="32.26" fill="#f6e1ac"/><path d="M 96.77 322.57 A 32.26 32.26 0 0 0 129.03 354.83 L 129.03 322.57" fill="#fefbf5"/><rect x="64.51" y="354.83" width="32.26" height="32.26" fill="#f1d17e"/><path d="M 64.51 387.09 A 32.26 32.26 0 0 1  96.77000000000001 354.83 L 64.51 387.09 A 32.26 32.26 0 0 0 96.77000000000001 354.83" fill="#fbf2da"/><rect x="96.77" y="354.83" width="32.26" height="32.26" fill="#f5dc9d"/><path d="M 96.77 387.09 A 32.26 32.26 0 0 0 129.03 354.83 L 96.77 354.83" fill="#f9ebc8"/><rect x="129.03" y="322.57" width="64.51" height="64.51" fill="#4a6574"/><path d="M 129.03 322.57 A 64.51 64.51 0 0 1 193.54000000000002 387.08 L 129.03 387.08" fill="#899ba5"/><rect x="193.54285714285714" y="322.5714285714286" width="64.51428571428572" height="64.51428571428572" fill="#ffffff"/><rect x="193.54" y="322.57" width="32.26" height="32.26" fill="#fcf4df"/><path d="M 193.54 322.57 A 32.26 32.26 0 0 1 225.79999999999998 354.83 L 193.54 354.83" fill="#b3bfc5"/><rect x="225.8" y="322.57" width="32.26" height="32.26" fill="#82959f"/><path d="M 225.8 322.57 A 32.26 32.26 0 0 0 258.06 354.83 L 258.06 322.57" fill="#e7ebed"/><rect x="193.54" y="354.83" width="32.26" height="32.26" fill="#fffefc"/><path d="M 193.54 354.83 A 32.26 32.26 0 0 1  225.79999999999998 387.09 L 193.54 354.83 A 32.26 32.26 0 0 0 225.79999999999998 387.09" fill="#faefd3"/><rect x="225.8" y="354.83" width="32.26" height="32.26" fill="#9faeb5"/><path d="M 225.8 354.83 A 32.26 32.26 0 0 1 258.06 387.09 L 225.8 387.09" fill="#425e6e"/><rect x="258.0571428571429" y="322.5714285714286" width="64.51428571428572" height="64.51428571428572" fill="#ffffff"/><rect x="258.06" y="322.57" width="32.26" height="32.26" fill="#657c89"/><path d="M 258.06 354.83 A 32.26 32.26 0 0 0 290.32 322.57 L 258.06 322.57" fill="#f2d486"/><rect x="290.31" y="322.57" width="32.26" height="32.26" fill="#faefd2"/><path d="M 290.31 354.83 A 32.26 32.26 0 0 0 322.57 322.57 L 290.31 322.57" fill="#274859"/><rect x="258.06" y="354.83" width="32.26" height="32.26" fill="#8e9fa9"/><path d="M 258.06 387.09 A 32.26 32.26 0 0 0 290.32 354.83 L 258.06 354.83" fill="#4f6978"/><rect x="290.31" y="354.83" width="32.26" height="32.26" fill="#97a7b0"/><path d="M 290.31 387.09 A 32.26 32.26 0 0 1  322.57 354.83 L 322.57 387.09" fill="#f2d486"/><rect x="322.5714285714286" y="322.5714285714286" width="64.51428571428572" height="64.51428571428572" fill="#ffffff"/><rect x="322.57" y="322.57" width="32.26" height="32.26" fill="#b8c3c9"/><path d="M 322.57 322.57 A 32.26 32.26 0 0 1  354.83 354.83 L 322.57 322.57 A 32.26 32.26 0 0 0 354.83 354.83" fill="#f3d68c"/><rect x="354.83" y="322.57" width="32.26" height="32.26" fill="#fafbfb"/><path d="M 354.83 322.57 A 32.26 32.26 0 0 1  387.09 354.83 L 354.83 322.57 A 32.26 32.26 0 0 0 387.09 354.83" fill="#c0cacf"/><rect x="322.57" y="354.83" width="32.26" height="32.26" fill="#f7e4b3"/><path d="M 322.57 354.83 A 32.26 32.26 0 0 0 354.83 387.09 L 354.83 354.83" fill="#f3d589"/><rect x="354.83" y="354.83" width="32.26" height="32.26" fill="#f2d180"/><path d="M 354.83 354.83 A 32.26 32.26 0 0 0 387.09 387.09 L 387.09 354.83" fill="#788d98"/><rect x="387.0857142857143" y="322.5714285714286" width="64.51428571428572" height="64.51428571428572" fill="#ffffff"/><rect x="387.09" y="322.57" width="32.26" height="32.26" fill="#fdf7e8"/><path d="M 387.09 354.83 A 32.26 32.26 0 0 0 419.34999999999997 322.57 L 387.09 322.57" fill="#a5b3ba"/><rect x="419.34" y="322.57" width="32.26" height="32.26" fill="#f7e4b3"/><path d="M 419.34 322.57 A 32.26 32.26 0 0 1  451.59999999999997 354.83 L 419.34 322.57 A 32.26 32.26 0 0 0 451.59999999999997 354.83" fill="#a6b3bb"/><rect x="387.09" y="354.83" width="32.26" height="32.26" fill="#faedce"/><path d="M 387.09 387.09 A 32.26 32.26 0 0 1  419.34999999999997 354.83 L 387.09 387.09 A 32.26 32.26 0 0 0 419.34999999999997 354.83" fill="#fcf5e4"/><rect x="419.34" y="354.83" width="32.26" height="32.26" fill="#a5b2ba"/><path d="M 419.34 387.09 A 32.26 32.26 0 0 1  451.59999999999997 354.83 L 451.59999999999997 387.09" fill="#2e4e5f"/><rect x="451.6" y="322.5714285714286" width="64.51428571428572" height="64.51428571428572" fill="#ffffff"/><rect x="451.6" y="322.57" width="32.26" height="32.26" fill="#fbf0d5"/><path d="M 451.6 354.83 A 32.26 32.26 0 0 0 483.86 322.57 L 451.6 322.57" fill="#f5dea4"/><rect x="483.86" y="322.57" width="32.26" height="32.26" fill="#fefdf9"/><path d="M 483.86 354.83 A 32.26 32.26 0 0 1  516.12 322.57 L 483.86 354.83 A 32.26 32.26 0 0 0 516.12 322.57" fill="#e6e9ec"/><rect x="451.6" y="354.83" width="32.26" height="32.26" fill="#f5dda1"/><path d="M 451.6 387.09 A 32.26 32.26 0 0 0 483.86 354.83 L 451.6 354.83" fill="#3f5d6c"/><rect x="483.86" y="354.83" width="32.26" height="32.26" fill="#f2d486"/><path d="M 483.86 387.09 A 32.26 32.26 0 0 1  516.12 354.83 L 483.86 387.09 A 32.26 32.26 0 0 0 516.12 354.83" fill="#f2d180"/><rect x="516.11" y="322.57" width="64.51" height="64.51" fill="#d5dcdf"/><path d="M 516.11 322.57 A 64.51 64.51 0 0 1 580.62 387.08 L 516.11 387.08" fill="#fefefe"/><rect x="580.63" y="322.57" width="64.51" height="64.51" fill="#516b7a"/><path d="M 580.63 322.57 A 64.51 64.51 0 0 0 645.14 387.08 L 645.14 322.57" fill="#f7e4b3"/><rect x="645.1428571428572" y="322.5714285714286" width="64.51428571428572" height="64.51428571428572" fill="#ffffff"/><rect x="645.14" y="322.57" width="32.26" height="32.26" fill="#f9eac3"/><path d="M 645.14 322.57 A 32.26 32.26 0 0 1 677.4 354.83 L 645.14 354.83" fill="#d6dde0"/><rect x="677.4" y="322.57" width="32.26" height="32.26" fill="#f1cf7a"/><path d="M 677.4 322.57 A 32.26 32.26 0 0 1  709.66 354.83 L 677.4 322.57 A 32.26 32.26 0 0 0 709.66 354.83" fill="#798d98"/><rect x="645.14" y="354.83" width="32.26" height="32.26" fill="#afbbc2"/><path d="M 645.14 387.09 A 32.26 32.26 0 0 0 677.4 354.83 L 645.14 354.83" fill="#a5b3ba"/><rect x="677.4" y="354.83" width="32.26" height="32.26" fill="#e4e8ea"/><path d="M 677.4 387.09 A 32.26 32.26 0 0 0 709.66 354.83 L 677.4 354.83" fill="#acb9c0"/><rect x="709.657142857143" y="322.5714285714286" width="64.51428571428572" height="64.51428571428572" fill="#ffffff"/><rect x="709.66" y="322.57" width="32.26" height="32.26" fill="#fefbf5"/><path d="M 709.66 354.83 A 32.26 32.26 0 0 0 741.92 322.57 L 709.66 322.57" fill="#f7e3b0"/><rect x="741.91" y="322.57" width="32.26" height="32.26" fill="#fdfaf0"/><path d="M 741.91 322.57 A 32.26 32.26 0 0 0 774.17 354.83 L 774.17 322.57" fill="#d6dcdf"/><rect x="709.66" y="354.83" width="32.26" height="32.26" fill="#faefd2"/><path d="M 709.66 354.83 A 32.26 32.26 0 0 1  741.92 387.09 L 709.66 354.83 A 32.26 32.26 0 0 0 741.92 387.09" fill="#d7dde0"/><rect x="741.91" y="354.83" width="32.26" height="32.26" fill="#fbf3dd"/><path d="M 741.91 354.83 A 32.26 32.26 0 0 1 774.17 387.09 L 741.91 387.09" fill="#f5dea2"/><rect x="774.17" y="322.57" width="64.51" height="64.51" fill="#f0cc72"/><path d="M 774.17 322.57 A 64.51 64.51 0 0 1  838.68 387.08 L 774.17 322.57 A 64.51 64.51 0 0 0 838.68 387.08" fill="#f2d281"/><rect x="0" y="387.0857142857143" width="64.51428571428572" height="64.51428571428572" fill="#ffffff"/><rect x="0" y="387.09" width="32.26" height="32.26" fill="#4e6978"/><path d="M 0 387.09 A 32.26 32.26 0 0 1  32.26 419.34999999999997 L 0 387.09 A 32.26 32.26 0 0 0 32.26 419.34999999999997" fill="#f2d384"/><rect x="32.26" y="387.09" width="32.26" height="32.26" fill="#4f6978"/><path d="M 32.26 419.34999999999997 A 32.26 32.26 0 0 0 64.52 387.09 L 32.26 387.09" fill="#f9ecca"/><rect x="0" y="419.34" width="32.26" height="32.26" fill="#f3d58b"/><path d="M 0 419.34 A 32.26 32.26 0 0 1  32.26 451.59999999999997 L 0 419.34 A 32.26 32.26 0 0 0 32.26 451.59999999999997" fill="#27485a"/><rect x="32.26" y="419.34" width="32.26" height="32.26" fill="#d7dde0"/><path d="M 32.26 419.34 A 32.26 32.26 0 0 0 64.52 451.59999999999997 L 64.52 419.34" fill="#3c596a"/><rect x="64.51" y="387.09" width="64.51" height="64.51" fill="#3c5a6a"/><path d="M 64.51 387.09 A 64.51 64.51 0 0 0 129.02 451.59999999999997 L 129.02 387.09" fill="#dce1e4"/><rect x="129.03" y="387.09" width="64.51" height="64.51" fill="#6d8390"/><path d="M 129.03 387.09 A 64.51 64.51 0 0 1  193.54000000000002 451.59999999999997 L 129.03 387.09 A 64.51 64.51 0 0 0 193.54000000000002 451.59999999999997" fill="#f0cd73"/><rect x="193.54285714285714" y="387.0857142857143" width="64.51428571428572" height="64.51428571428572" fill="#ffffff"/><rect x="193.54" y="387.09" width="32.26" height="32.26" fill="#7d919c"/><path d="M 193.54 419.34999999999997 A 32.26 32.26 0 0 1  225.79999999999998 387.09 L 225.79999999999998 419.34999999999997" fill="#fffefb"/><rect x="225.8" y="387.09" width="32.26" height="32.26" fill="#9eadb5"/><path d="M 225.8 419.34999999999997 A 32.26 32.26 0 0 1  258.06 387.09 L 258.06 419.34999999999997" fill="#fbf0d6"/><rect x="193.54" y="419.34" width="32.26" height="32.26" fill="#f6e0a9"/><path d="M 193.54 419.34 A 32.26 32.26 0 0 1 225.79999999999998 451.59999999999997 L 193.54 451.59999999999997" fill="#e5e9eb"/><rect x="225.8" y="419.34" width="32.26" height="32.26" fill="#889aa4"/><path d="M 225.8 451.59999999999997 A 32.26 32.26 0 0 1  258.06 419.34 L 225.8 451.59999999999997 A 32.26 32.26 0 0 0 258.06 419.34" fill="#fcf4e1"/><rect x="258.06" y="387.09" width="64.51" height="64.51" fill="#f1f3f4"/><path d="M 258.06 387.09 A 64.51 64.51 0 0 0 322.57 451.59999999999997 L 322.57 387.09" fill="#faeed0"/><rect x="322.5714285714286" y="387.0857142857143" width="64.51428571428572" height="64.51428571428572" fill="#ffffff"/><rect x="322.57" y="387.09" width="32.26" height="32.26" fill="#a3b1b9"/><path d="M 322.57 419.34999999999997 A 32.26 32.26 0 0 0 354.83 387.09 L 322.57 387.09" fill="#fefcf7"/><rect x="354.83" y="387.09" width="32.26" height="32.26" fill="#3e5b6b"/><path d="M 354.83 419.34999999999997 A 32.26 32.26 0 0 1  387.09 387.09 L 354.83 419.34999999999997 A 32.26 32.26 0 0 0 387.09 387.09" fill="#f3d68c"/><rect x="322.57" y="419.34" width="32.26" height="32.26" fill="#57717f"/><path d="M 322.57 419.34 A 32.26 32.26 0 0 1 354.83 451.59999999999997 L 322.57 451.59999999999997" fill="#fcf4e1"/><rect x="354.83" y="419.34" width="32.26" height="32.26" fill="#fbf2da"/><path d="M 354.83 451.59999999999997 A 32.26 32.26 0 0 0 387.09 419.34 L 354.83 419.34" fill="#f2d281"/><rect x="387.09" y="387.09" width="64.51" height="64.51" fill="#425f6f"/><path d="M 387.09 387.09 A 64.51 64.51 0 0 1 451.59999999999997 451.59999999999997 L 387.09 451.59999999999997" fill="#faeed0"/><rect x="451.6" y="387.09" width="64.51" height="64.51" fill="#97a7b0"/><path d="M 451.6 387.09 A 64.51 64.51 0 0 1  516.11 451.59999999999997 L 451.6 387.09 A 64.51 64.51 0 0 0 516.11 451.59999999999997" fill="#fffefc"/><rect x="516.1142857142858" y="387.0857142857143" width="64.51428571428572" height="64.51428571428572" fill="#ffffff"/><rect x="516.11" y="387.09" width="32.26" height="32.26" fill="#faefd1"/><path d="M 516.11 387.09 A 32.26 32.26 0 0 1  548.37 419.34999999999997 L 516.11 387.09 A 32.26 32.26 0 0 0 548.37 419.34999999999997" fill="#395768"/><rect x="548.37" y="387.09" width="32.26" height="32.26" fill="#fffefd"/><path d="M 548.37 387.09 A 32.26 32.26 0 0 1 580.63 419.34999999999997 L 548.37 419.34999999999997" fill="#ffffff"/><rect x="516.11" y="419.34" width="32.26" height="32.26" fill="#feffff"/><path d="M 516.11 419.34 A 32.26 32.26 0 0 1 548.37 451.59999999999997 L 516.11 451.59999999999997" fill="#fcf3de"/><rect x="548.37" y="419.34" width="32.26" height="32.26" fill="#f0cd74"/><path d="M 548.37 419.34 A 32.26 32.26 0 0 1 580.63 451.59999999999997 L 548.37 451.59999999999997" fill="#365465"/><rect x="580.63" y="387.09" width="64.51" height="64.51" fill="#c5ced3"/><path d="M 580.63 451.59999999999997 A 64.51 64.51 0 0 0 645.14 387.09 L 580.63 387.09" fill="#3e5b6b"/><rect x="645.14" y="387.09" width="64.51" height="64.51" fill="#fffefb"/><path d="M 645.14 387.09 A 64.51 64.51 0 0 1  709.65 451.59999999999997 L 645.14 387.09 A 64.51 64.51 0 0 0 709.65 451.59999999999997" fill="#8597a2"/><rect x="709.66" y="387.09" width="64.51" height="64.51" fill="#f5dd9f"/><path d="M 709.66 387.09 A 64.51 64.51 0 0 1 774.17 451.59999999999997 L 709.66 451.59999999999997" fill="#f8e7bc"/><rect x="774.17" y="387.09" width="64.51" height="64.51" fill="#3a5868"/><path d="M 774.17 387.09 A 64.51 64.51 0 0 0 838.68 451.59999999999997 L 838.68 387.09" fill="#6c838f"/></g></svg>